<?xml version="1.0" encoding="utf-8"?>
<!-- Generator: Adobe Illustrator 26.2.1, SVG Export Plug-In . SVG Version: 6.00 Build 0)  -->
<svg version="1.1" id="Layer_1" xmlns="http://www.w3.org/2000/svg" xmlns:xlink="http://www.w3.org/1999/xlink" x="0px" y="0px"
	 viewBox="0 0 652.1 248.4" style="enable-background:new 0 0 652.1 248.4;" xml:space="preserve">
<style type="text/css">
	.st0{fill:#FFFFFF;}
</style>
<path class="st0" d="M43.5,199.3c-0.6,0-0.9,0.4-1.1,1.3c-1.6,5.7-2.3,8.5-3.9,14.3c-1.1,3.6-1.7,7.4-2,11.2c0,3.3,1.3,4.6,3.8,4.8
	c1.3,0.1,3.5,0.3,4.4,0.3c1.7,0,2.3,0.6,2.3,1.5c0,1.4-1,1.8-2.7,2c-5.7,0.6-10,0.5-16.7,1.2c-1.4,0.2-9.7,1.6-16,2.3
	c-1.8,0.2-2.5-0.4-2.5-1.5c0-1.4,1-1.8,2.4-2.1c1.4-0.2,2.7-0.6,4-1.1c4.4-1.7,6.9-7.5,9.6-16.1c10.8-34.5,22-68.8,33.7-103
	c2.4-7,3.8-9.3,5.2-9.1c1.4,0.1,2.4,2.6,4.5,8.6c10.9,31.5,21.5,63.6,33.1,95.1c4.3,12,7.1,15.4,11.5,15.9c1.3,0.3,2.7,0.4,4,0.3
	c1.5,0,2.4,0.4,2.4,1.4s-0.9,1.6-3.3,1.8c-11.6,0.9-23.4,1.5-34.9,2.4c-2,0.2-2.8-0.2-2.8-1.2c0-1,0.8-1.9,1.8-2.1
	c1.2-0.4,1.9-1.6,1.6-2.8c0-0.1,0-0.1-0.1-0.2c-3.4-10-5.1-15-8.5-25.2c-0.1-0.5-0.5-0.9-1-0.9C62.7,198.4,53.1,198.8,43.5,199.3z
	 M68.7,185c0.8,0,0.8-0.5,0.6-0.8c-3.8-11.8-7.5-23.6-11.1-35.4c-0.4-1.2-0.6-0.9-0.9,0c-3.6,11.9-7.2,23.9-10.8,35.9
	c-0.1,0.5,0.1,0.9,0.5,0.8L68.7,185z M151.4,227.7c7.9-0.5,15.5-3.1,22-7.5c7.6-5.2,13.4-17.3,13.4-26.3
	c0.1-15.5-11.9-27.1-23.3-36.6c-2.6-2-3.9-3.1-6.5-5.1c-8.6-6.9-10.1-12.8-10.1-17.8c0-6.8,3.8-13.4,14.2-12.8
	c9.1,0.5,14.9,5.7,17.3,10.3c1.3,2.6,2,5.5,2.3,8.4c0.2,2.3,0.8,2.7,1.4,2.7c1,0,1.4-1,1.4-3.5c0-12.7,0.4-15.6,0.5-20
	c0-1.1-0.4-1.6-1.6-2.1c-2-0.8-4.1-1.5-6.2-2c-4.8-1.3-9.6-2-14.5-2.3c-17.1-1.2-32.7,11.6-32.2,29.2c0.4,14.5,7.8,27.9,19.7,36.6
	c3.1,2.5,4.7,3.7,7.8,6.2c10.8,8.3,11.8,13.1,11.8,19.3c0,6.2-3.7,13.5-15.7,14.1c-10.9,0.6-19.8-7.5-21.5-18.2
	c-0.3-1.5-0.5-3.1-0.6-4.6c-0.1-1.2-0.4-2.5-1.1-2.5s-1.3,0.9-1.5,3.7c-0.4,4.2-0.8,10-0.8,22.3c0,3,0.6,4.9,2.8,5.9
	C135.3,227.3,142,228.3,151.4,227.7z M294.8,198c0-6.5,0.1-13.5,0.4-17.7c0.3-4.6,1.8-6.1,4.8-6.8c1.3-0.1,2.9-0.4,3.4-0.4
	c1.2-0.1,2-0.3,2-1.3c0-1.1-1-1.3-2.9-1.3c-6.8,0-15.1,0.4-19.6,0.4c-3.4,0-13.2-0.4-21.4-0.4c-2,0-2.7,0.5-2.7,1.3
	c0,0.8,1.1,1.3,2,1.4c1.8,0.1,3.6,0.3,5.4,0.7c4.3,0.7,5.9,3.6,5.9,11.1c0.1,4.9,0.1,10.2,0.1,15.7v8.2c0.1,1.4-0.5,2.7-1.5,3.6
	c-1.9,1.5-5.3,1.7-7.1,1.7c-26.7,0.7-37.3-27.5-37.4-49.8c-0.1-10,1.5-21.5,8-29.5c5.5-6.8,13.3-9.5,22.7-9.3
	c11.7,0.3,26.9,3.5,31.2,16c0.9,2.1,1.4,4.4,1.5,6.7c0.1,1.1,0.6,2.1,1.5,2.1c0.9,0,1.4-0.7,1.4-2.8c0-17.7,1.2-23.3,1.4-24.5
	c0.2-1.1-0.1-1.7-1.3-1.7c-3.6-0.1-8-1.1-12.1-1.8c-6.8-1.2-13.6-2-20.5-2.3c-12.5-0.4-25.3,1.4-36.3,7.9c-15.1,9-22.8,28-22.8,44.8
	c0.1,34.5,28.2,54.5,60.2,52.7c10.3-0.6,21.1-1.7,31-5.6c2.3-1,2.5-1.8,2.5-9.6L294.8,198z M341.1,192.8c-0.6,0-0.9,0.3-1.1,0.9
	c-1.6,4.3-2.4,6.5-3.9,10.9c-1.1,2.7-1.7,5.6-2,8.5c0,2.5,1.3,3.6,3.8,4c1.3,0.2,3.5,0.5,4.4,0.6c1.8,0.1,2.3,0.7,2.3,1.3
	c0,1.1-1,1.3-2.7,1.3c-5.7,0-10-0.4-16.7-0.4c-1.4,0-9.7,0.4-16,0.5c-1.8,0-2.5-0.5-2.5-1.3c0-1.1,1-1.3,2.4-1.3
	c1.3-0.1,2.7-0.3,4-0.6c4.4-1,7-5.1,9.6-11.4c11.3-26.7,22.5-53.4,33.8-80.2c2.4-5.7,3.8-7.8,5.2-7.8c1.4,0,2.5,1.8,4.6,6.6
	c11.5,26,22.2,52.8,33.2,79.2c4.3,10.6,7.1,14,11.5,14.8c1.3,0.4,2.7,0.6,4.1,0.7c1.5,0.1,2.4,0.6,2.4,1.4c0,0.8-0.9,1.3-3.3,1.3
	c-11.6-0.4-23.4-1-34.9-1.3c-2-0.1-2.8-0.5-2.8-1.3c0-0.8,0.7-1.4,1.8-1.6c1,0,1.7-0.8,1.7-1.8c0-0.2-0.1-0.4-0.1-0.6
	c-3.4-8.6-5.1-12.9-8.5-21.4c-0.1-0.5-0.5-0.8-1-0.8C360.5,192.8,350.8,192.8,341.1,192.8z M366.5,182.2c0.8,0,0.8-0.4,0.6-0.7
	c-3.7-9.5-7.4-19-11.1-28.5c-0.4-0.9-0.6-0.7-0.9,0c-3.6,9.5-7.2,19-10.8,28.4c-0.1,0.2,0,0.5,0.3,0.6c0.1,0,0.2,0,0.2,0
	L366.5,182.2z M437.5,157.9c0-9.6,0-19.1-0.4-28.6c-0.2-5.6-1.8-7.4-4.8-8c-1.7-0.2-3.4-0.4-5.1-0.4c-1.5-0.1-2.3-0.6-2.3-1.4
	s0.9-1.3,2.8-1.3c5.4-0.2,17.6-0.3,19.4-0.4c2.4-0.1,14.5-1.1,20.4-1.4c11.9-0.6,20.3,0.3,25.8,3.5c6,3.5,11.5,10.8,11.5,21.9
	c0,12.3-6.9,22.9-16.9,29.7c8,13.3,15.7,27,24.6,39.5c6.5,9.1,9.8,11.9,13.3,12.8c1,0.3,2.1,0.5,3.2,0.7c1.3,0.2,2.1,0.8,2.1,1.7
	c0,1.4-1.3,1.4-2.5,1.3c-4.6-0.3-6.8-0.5-11.4-0.8c-13-0.9-18.6-2.9-23-6.3c-3.9-3-8.2-9.5-13-18.7c-5.8-11-8.7-17-11-20.8
	c-0.3-0.5-0.9-0.8-1.5-0.9l-8.4-0.1c-0.6,0-1,0.3-1,1.1v7.2c0,11.1,0.1,17.9,0.6,23.7c0.3,3.6,1.1,6.8,4.9,8c1.8,0.6,3.8,1,5.7,1.1
	c2,0.3,2.3,0.8,2.3,1.7s-0.9,1.2-2.7,1.1c-8.5-0.4-22.3-1.5-23.1-1.5c-1.5-0.1-13.8-0.2-18.1-0.3c-1.9-0.1-2.5-0.5-2.5-1.5
	s1-1.3,2.3-1.3c1.4,0,2.9-0.2,4.3-0.4c2.5-0.6,3.6-3.1,3.9-7.7c0.8-9.6,0.6-19.3,0.6-28.9L437.5,157.9z M459.3,167.1
	c-0.1,0.9,0.4,1.7,1.1,2.1c2.4,1.4,6.2,1.8,9.7,1.8c3.5,0,6-0.6,8-2.3c2.7-2.3,4.5-8.9,4.9-18.2c0.5-10.4-5.6-25.4-18-25
	c-1.7,0-3.4,0.2-5.1,0.8c-0.5,0.3-0.8,0.5-0.8,1.6L459.3,167.1z M550.3,156.3c0-10.8,0.3-21.7-0.3-32.4c-0.2-4.5-0.9-8.7-5.7-9
	c-1-0.1-2.3,0-4.7-0.1c-1.9-0.1-2.4-0.8-2.4-1.5c0-0.9,0.8-1.4,2.9-1.6c3.2-0.2,14.8-0.7,20.3-1.2c4.2-0.4,9.9-1,20.5-2.1
	c17.8-2,38.6-0.3,50,15.5c9.5,13.4,12.2,29.8,12.1,44.9c0,16.2-3.5,34.1-13.9,48.3c-10.7,14.5-26.9,17.4-43.2,16.5
	c-4.5-0.3-9.1-0.9-13.5-1.9c-4.9-1.1-10.1-2-12.5-2.2c-3-0.3-6.1-0.5-9.6-0.6c-3.5-0.1-5.2-0.1-8.7-0.4c-2.1-0.2-2.5-1-2.5-1.7
	c0-1.1,1.1-1.4,2.4-1.4c1.3,0,2.6-0.1,3.9-0.3c2.5-0.3,3.8-3.2,4.2-9.2c0.6-10.6,0.6-21.3,0.6-32.1L550.3,156.3z M572.6,174
	c0,10.4-0.1,21,0.3,31.3c0.2,6.6,0.8,9.9,2.1,11.8c2.3,3.7,7.5,6.4,13,6.9c8.8,0.7,16.6-1.1,23-10c8.1-11.3,8.4-27.2,8.2-40.2
	c-0.2-13.2-2.7-26.8-9.5-39.2c-7.8-9.9-15.5-17.4-29-16.3c-2.8,0.2-5.7,1-6.8,1.8s-1.2,1.5-1.1,3c0,10-0.1,20.1-0.1,30.2V174z
	 M205.8,50.3c0-3.4,0-6.1,0.1-8.1c0.1-2.4,0.7-3.5,2.6-3.8c0.6-0.1,1.2-0.2,1.8-0.2c0.5,0,0.9,0,0.9-0.5c0-0.5-0.5-0.7-1.4-0.7
	c-2.2,0-5.9,0.2-7.9,0.2s-6.3-0.2-9.8-0.2c-0.9,0-1.4,0.3-1.4,0.7c0,0.4,0.4,0.5,1,0.5c0.9,0,1.8,0.1,2.6,0.2
	c2.2,0.5,2.8,1.6,2.9,3.8c0.1,2,0.1,4.6,0.1,7.9v6.3c0.2,1-0.4,2-1.3,2.5c-1.8,0.6-3.8,0.9-5.7,0.7c-14.2,0-23.4-10.8-23.4-25.3
	c0-8.3,2.4-13.3,6.2-16.5c4.7-3.9,9.6-4.2,13.3-4.2c7.6,0,13,3.1,15,5.2c1.4,1.6,2.2,3.5,2.3,5.6c0.1,0.5,0.1,0.9,0.7,0.9
	c0.5,0,0.7-0.3,0.7-1.4c-0.1-3.7,0.1-7.4,0.5-11c0-0.5-0.1-0.7-0.9-0.8c-1.8-0.1-3.6-0.4-5.3-0.7c-3.9-0.7-7.9-1-11.9-1.1
	c-5.6,0-11.6,0.5-18,4.4c-6.1,3.7-11.7,11.3-11.7,22c0,18.6,14.6,26.4,31,26.4c5.2,0,11.8-0.7,16.2-3c0.8-0.5,0.9-0.6,0.9-2.4
	L205.8,50.3z M217.3,36.8c0-11.5,7.6-26.4,27.8-26.4c16.8,0,27.2,9.8,27.2,25.2s-10.8,27.6-27.9,27.6
	C225.1,63.2,217.3,48.7,217.3,36.8z M262.8,38.1c0-15.1-8.7-24.4-19.7-24.4c-7.7,0-16.6,4.3-16.6,21c0,14,7.7,25.1,20.7,25.1
	C251.9,59.8,262.8,57.5,262.8,38.1z M286,30.9c0-10.2,0-12.1-0.1-14.3c-0.1-2.2-0.7-3.4-2.9-3.8c-0.9-0.2-1.7-0.2-2.6-0.2
	c-0.7,0-1.1-0.1-1.1-0.6s0.5-0.6,1.5-0.6c3.6,0,7.8,0.2,9.7,0.2c2.1,0,6.3-0.2,10.4-0.2c8.4,0,19.7,0,27,7.7
	c4.3,4.6,6.7,10.8,6.5,17.1c0.1,7-2.5,13.7-7.3,18.8c-3.1,3.2-10.1,7.9-22.5,7.9c-2.4,0-5.2-0.2-7.7-0.4c-2.6-0.2-4.9-0.4-6.6-0.4
	c-0.7,0-2.2,0-3.8,0.1s-3.3,0.1-4.6,0.1c-0.9,0-1.4-0.2-1.4-0.7s0.3-0.5,1.1-0.5c0.8,0,1.6-0.1,2.4-0.3c1.3-0.3,1.7-1.7,2-3.7
	c0.3-2.8,0.3-8.1,0.3-14.3L286,30.9z M294.4,38.3c0,7.1,0.1,12.3,0.1,13.6c0.1,1.7,0.2,4.4,0.7,5.1c0.9,1.3,3.5,2.7,8.8,2.7
	c6.9,0,11.4-1.4,15.5-4.8c4.3-3.7,5.6-9.8,5.6-16.8c0-8.6-3.6-14-6.5-16.8c-6.2-5.9-13.9-6.7-19.1-6.7c-1.5,0-2.9,0.1-4.4,0.5
	c-0.6,0.2-1,0.8-0.8,1.4c-0.1,2.3-0.1,8.1-0.1,13.5L294.4,38.3z M353.4,63.2c3.8,0.1,7.5-0.8,10.7-2.8c4-2.5,6.4-7,6.3-11.7
	c0-6.4-2.9-11-11-17.2l-1.9-1.4c-5.6-4.2-7.1-6.6-7.1-9.7c0-4,3-6.9,8-6.9c4.3,0,6.3,2,7.3,3.3c1,1.3,1.6,2.8,1.7,4.4
	c0,0.8,0.2,1.2,0.7,1.2c0.5,0,0.7-0.5,0.7-2c0-5.2,0.3-7.2,0.3-8.1c0-0.5-0.2-0.6-0.9-0.8s-1.6-0.4-2.8-0.6c-2-0.4-4.1-0.5-6.2-0.5
	c-9.4,0-15.5,5.3-15.5,12.7c0,5.4,2.6,10.2,10,15.9l3.1,2.4c5.6,4.4,6.6,7.5,6.6,10.8c0,3.6-3,7.7-9,7.7c-4.2,0-8.1-1.8-9.6-6.8
	c-0.3-1.1-0.6-2.3-0.6-3.4c0-0.5-0.1-1.1-0.7-1.1c-0.5,0-0.7,0.7-0.8,1.8c-0.1,1.1-0.3,5.1-0.3,8.8c0,1.5,0.2,1.8,1.3,2.3
	C346.7,62.7,350.1,63.3,353.4,63.2z M398.6,36.8c0-11.5,7.6-26.4,27.8-26.4c16.8,0,27.2,9.8,27.2,25.2s-10.8,27.6-27.9,27.6
	C406.5,63.2,398.6,48.7,398.6,36.8z M444.2,38.1c0-15.1-8.7-24.4-19.7-24.4c-7.7,0-16.6,4.3-16.6,21c0,14,7.7,25.1,20.7,25.1
	C433.3,59.8,444.2,57.5,444.2,38.1z M467.3,42.7c0,6.5,0,11.5-0.3,14.3c-0.3,2-0.6,3.4-2,3.7c-0.8,0.2-1.6,0.3-2.4,0.3
	c-0.7,0-1,0.2-1,0.5c0,0.5,0.5,0.7,1.4,0.7c2.5,0,6.8-0.2,8.6-0.2c1.8,0,6,0.2,10.2,0.2c1,0,1.5-0.3,1.5-0.7S483,61,482.2,61
	c-1.1,0-2.3-0.1-3.4-0.3c-2-0.3-2.4-1.7-2.6-3.7c-0.3-2.8-0.3-7.9-0.3-14.3v-5.4c0-0.5,0.1-0.6,0.5-0.6c1.2,0,8.3,0,10,0.2
	c1.5,0.1,2.8,1,3.4,2.4c0.2,0.7,0.4,1.4,0.4,2.1c0,0.5,0.1,0.9,0.5,0.9c0.7,0,0.7-0.8,0.7-1.3c0-0.5,0.1-3.6,0.3-4.9
	c0.2-2.1,0.5-3.8,0.5-4.2s0-0.6-0.4-0.6s-0.5,0.3-0.9,0.7c-0.9,1.3-2,1.3-5.9,1.3c-2.4,0-6.8,0.1-8.6,0.1c-0.4,0-0.5-0.2-0.5-0.6
	V15.9c0-0.7,0.2-0.9,0.6-0.9c2,0.1,8,0.1,10.4,0.2c2.6,0.1,4,1.1,4.4,2c0.3,0.8,0.4,1.7,0.4,2.6c0.1,0.7,0.2,1.1,0.7,1.1
	c0.5,0,0.6-0.4,0.7-0.9c0.1-0.8,0.3-4.8,0.3-5.4c0.2-1.7,0.5-2.5,0.5-3c0-0.3-0.2-0.6-0.5-0.6c-0.3,0-0.7,0.3-1.1,0.4
	c-0.9,0.2-1.8,0.3-2.7,0.3c-1.6,0.1-15.2,0.1-17.8,0.1c-3.5,0-6.6-0.2-9.7-0.2c-1,0-1.5,0.3-1.5,0.7c0,0.4,0.5,0.5,1.1,0.5
	c0.9,0,1.8,0,2.6,0.2c2.2,0.5,2.8,1.7,2.9,3.8s0.1,4,0.1,14.3L467.3,42.7z"/>
</svg>
