<svg width="71" height="40" viewBox="0 0 71 40" fill="none" xmlns="http://www.w3.org/2000/svg">
<path d="M20.194 40C31.2349 39.9896 40.194 31.0357 40.194 20.0311C40.194 9.02641 31.2349 -0.00517643 20.1733 2.22595e-06C9.11165 0.00518089 0.17326 8.98498 0.193975 20.0362C0.21469 31.0875 9.17898 40.0103 20.194 40ZM62.2241 20.0155C62.2352 17.6928 62.0009 15.3755 61.525 13.102C61.002 10.5852 60.1941 8.16675 58.8839 5.93993C57.9776 4.40704 56.8901 3.03988 55.3779 2.05075C53.8657 1.06163 52.3277 0.709481 50.598 1.14449C49.2308 1.48628 48.1071 2.25272 47.1231 3.24185C45.8802 4.47954 44.9688 5.95028 44.2334 7.53495C42.6073 11.0616 41.9134 14.8006 41.758 18.6587C41.6364 21.4168 41.8591 24.1794 42.4209 26.8824C42.9802 29.5287 43.8347 32.0663 45.264 34.3811C46.1599 35.826 47.237 37.1103 48.6922 38.0269C50.2458 39.0057 51.9134 39.3164 53.6897 38.7623C55.0258 38.348 56.1133 37.5401 57.0558 36.5303C58.3608 35.1424 59.2982 33.5163 60.0284 31.7711C61.6027 28.0114 62.1982 24.0652 62.2241 20.0155ZM63.3272 19.7048C63.4152 21.7556 63.4411 23.537 63.5706 25.3081C63.7 26.9705 63.902 28.6328 64.1351 30.29C64.3474 31.797 64.6788 33.2832 65.207 34.7229C65.4608 35.4117 65.7404 36.0901 66.248 36.6442C66.7555 37.1983 67.4028 37.2708 67.9414 36.6287C68.2362 36.2693 68.4818 35.8722 68.6716 35.4479C69.35 33.9824 69.6814 32.4132 69.9662 30.8389C70.4064 28.3739 70.6291 25.8829 70.7327 23.3868C70.863 20.4195 70.8198 17.447 70.6032 14.4847C70.4427 12.3459 70.1993 10.2175 69.7591 8.11496C69.4898 6.81512 69.1791 5.52045 68.568 4.33454C68.3492 3.91434 68.072 3.52727 67.7446 3.18488C67.3665 2.78612 66.859 2.79648 66.4499 3.17452C66.2117 3.39203 65.9787 3.64578 65.8388 3.93578C65.5281 4.5624 65.2226 5.20974 65.0102 5.87778C64.2179 8.36872 63.8658 10.9477 63.6638 13.5422C63.4981 15.6862 63.4308 17.8301 63.3272 19.7048Z" fill="#979797"/>
<path d="M20.194 40C9.17896 40.0103 0.209511 31.0616 0.193975 20.0362C0.178439 9.01087 9.13235 0.0051809 20.1733 2.24395e-06C31.2142 -0.00517642 40.1888 8.95391 40.1939 20.0311C40.1991 31.1082 31.2349 39.9896 20.194 40Z" fill="#979797"/>
<path d="M62.6923 20.0494C62.6664 24.0991 62.0708 28.0452 60.4965 31.8049C59.7663 33.5501 58.829 35.1762 57.524 36.5641C56.5815 37.5739 55.4939 38.3818 54.1578 38.7961C52.3816 39.3502 50.714 39.0395 49.1604 38.0607C47.7052 37.1441 46.6281 35.8598 45.7322 34.415C44.3028 32.1001 43.4484 29.5625 42.8891 26.9163C42.3273 24.2132 42.1046 21.4507 42.2262 18.6925C42.3816 14.8344 43.0755 11.0955 44.7016 7.56878C45.437 5.98411 46.3484 4.51338 47.5913 3.27568C48.5752 2.28655 49.699 1.52011 51.0662 1.17832C52.7958 0.743312 54.3805 1.12653 55.8461 2.08458C57.3116 3.04264 58.4458 4.44087 59.352 5.97376C60.6622 8.20058 61.4701 10.619 61.9932 13.1358C62.4691 15.4093 62.7034 17.7267 62.6923 20.0494Z" fill="#979797"/>
<path d="M63.194 19.8164C63.2975 17.9417 63.3649 15.7978 63.5306 13.6538C63.7326 11.0593 64.0847 8.48032 64.8771 5.98938C65.0894 5.32133 65.395 4.674 65.7057 4.04738C65.8455 3.75738 66.0786 3.50363 66.3168 3.28612C66.7259 2.90808 67.2334 2.89772 67.6115 3.29648C67.9389 3.63887 68.2161 4.02594 68.4349 4.44614C69.046 5.63205 69.3567 6.92672 69.626 8.22656C70.0662 10.3291 70.3096 12.4575 70.4702 14.5963C70.6867 17.5586 70.73 20.5311 70.5996 23.4984C70.4961 25.9945 70.2734 28.4855 69.8332 30.9505C69.5484 32.5248 69.2169 34.094 68.5385 35.5595C68.3487 35.9838 68.1031 36.3809 67.8083 36.7403C67.2697 37.3824 66.6793 37.3721 66.1148 36.7558C65.5503 36.1395 65.3276 35.5233 65.0739 34.8345C64.5456 33.3948 64.2142 31.9086 64.0019 30.4016C63.7688 28.7444 63.5668 27.0821 63.4374 25.4197C63.3079 23.6486 63.282 21.8671 63.194 19.8164Z" fill="#979797"/>
</svg>
