<svg width="49" height="37" viewBox="0 0 49 37" fill="none" xmlns="http://www.w3.org/2000/svg">
<path d="M40.7982 3.04508C37.7265 1.63564 34.4325 0.597235 30.9885 0.00249486C30.9258 -0.00898344 30.8631 0.0197015 30.8308 0.0770726C30.4072 0.830535 29.9379 1.81349 29.6093 2.58608C25.9051 2.03151 22.2198 2.03151 18.5915 2.58608C18.2628 1.79631 17.7765 0.830535 17.351 0.0770726C17.3187 0.0216156 17.256 -0.00706926 17.1933 0.00249486C13.7512 0.595335 10.4572 1.63374 7.38358 3.04508C7.35697 3.05655 7.33417 3.07569 7.31903 3.10054C1.07109 12.4348 -0.640478 21.5397 0.199162 30.5316C0.202961 30.5756 0.227656 30.6177 0.26185 30.6445C4.38406 33.6717 8.37713 35.5095 12.296 36.7277C12.3588 36.7468 12.4252 36.7239 12.4651 36.6722C13.3921 35.4063 14.2185 34.0715 14.927 32.6677C14.9688 32.5855 14.9289 32.488 14.8435 32.4555C13.5327 31.9583 12.2846 31.352 11.0841 30.6636C10.9891 30.6081 10.9815 30.4723 11.0689 30.4073C11.3215 30.218 11.5742 30.021 11.8155 29.8221C11.8591 29.7858 11.9199 29.7781 11.9712 29.8011C19.8585 33.4021 28.3974 33.4021 36.1915 29.8011C36.2429 29.7762 36.3037 29.7839 36.3492 29.8202C36.5905 30.0191 36.8432 30.218 37.0977 30.4073C37.1851 30.4723 37.1794 30.6081 37.0844 30.6636C35.8839 31.3654 34.6358 31.9583 33.3231 32.4536C33.2377 32.4861 33.1997 32.5855 33.2415 32.6677C33.9652 34.0695 34.7915 35.4043 35.7015 36.6703C35.7395 36.7239 35.8078 36.7468 35.8705 36.7277C39.8085 35.5095 43.8015 33.6717 47.9237 30.6445C47.9598 30.6177 47.9826 30.5775 47.9864 30.5335C48.9913 20.1378 46.3033 11.1077 40.8609 3.10244C40.8476 3.07569 40.8248 3.05655 40.7982 3.04508ZM16.1049 25.0565C13.7303 25.0565 11.7736 22.8764 11.7736 20.1991C11.7736 17.5217 13.6923 15.3417 16.1049 15.3417C18.5363 15.3417 20.474 17.5409 20.436 20.1991C20.436 22.8764 18.5173 25.0565 16.1049 25.0565ZM32.1187 25.0565C29.7442 25.0565 27.7876 22.8764 27.7876 20.1991C27.7876 17.5217 29.7062 15.3417 32.1187 15.3417C34.5503 15.3417 36.4879 17.5409 36.45 20.1991C36.45 22.8764 34.5503 25.0565 32.1187 25.0565Z" fill="#979797"/>
</svg>
