<svg width="591" height="603" viewBox="0 0 591 603" fill="none" xmlns="http://www.w3.org/2000/svg">
<g filter="url(#filter0_d_205_443)">
<path d="M201.414 250.469C202.321 238.726 214.415 229.647 226.45 231.947C228.929 232.431 231.409 232.976 233.888 233.218C235.702 233.339 237.577 232.976 239.452 232.794C239.633 232.431 239.814 232.068 239.996 231.705C238 229.586 236.186 227.286 233.949 225.47C226.813 219.781 218.891 217.239 210.061 220.991C208.126 221.839 206.493 223.776 205.163 225.531C203.833 227.286 203.409 229.707 202.018 231.342C200.325 233.4 198.39 235.639 196.092 236.608C190.166 239.029 184.481 241.631 180.066 246.716C178.857 234.852 185.872 219.054 200.023 219.357C204.014 219.418 208.066 218.933 212.057 218.328C215.02 217.904 217.862 216.936 219.798 213.546C215.202 211.367 210.968 209.128 206.554 207.251C201.172 204.951 195.85 202.409 190.226 201.017C186.053 199.927 181.397 199.746 177.164 200.412C168.939 201.683 163.194 210.157 167.306 218.025C169.06 221.354 168.214 225.168 166.46 228.557C164.041 233.279 161.501 237.939 159.082 242.6C152.551 235.276 153.035 221.052 160.231 214.031C162.65 211.67 165.311 209.43 164.948 205.012C158.598 206.464 153.639 209.672 151.039 215.302C149.588 218.328 148.983 222.081 148.983 225.47C148.983 230.918 148.257 235.639 144.75 240.118C140.456 245.626 137.553 252.042 136.283 259.064C130.055 248.411 128.482 234.671 134.832 226.318C135.497 225.47 136.223 224.623 137.009 223.836C140.456 220.447 144.145 217.299 147.471 213.728C153.518 207.191 160.473 202.046 168.516 198.233C169.06 197.991 169.484 197.627 170.451 196.962C169.423 196.659 168.879 196.356 168.274 196.296C159.626 195.388 151.22 196.235 142.936 198.777C141.182 199.322 139.428 199.746 137.674 199.988C132.171 200.835 127.696 203.438 123.765 207.372C120.923 210.217 120.197 213.909 119.653 217.541C118.807 223.473 116.811 228.376 111.429 231.947C106.893 234.973 104.353 239.816 103.023 245.324C97.157 232.492 98.9107 216.875 112.88 210.883C119.351 208.099 124.854 203.075 130.841 199.08L130.418 198.051C129.692 197.869 129.027 197.567 128.301 197.506C120.439 196.235 113.062 197.869 106.047 201.441C101.33 203.862 96.6732 206.586 92.1376 209.43C83.9132 214.515 79.9824 222.444 78.5915 231.644C78.2892 233.702 79.1358 236.305 80.2243 238.181C82.5223 242.176 83.4899 246.292 83.248 250.892C82.9457 256.824 82.8247 262.756 85.667 268.506C75.5679 266.085 67.4644 254.948 69.0367 245.566C69.5205 242.6 71.3952 239.876 72.6046 237.031C74.2979 233.097 75.9912 229.163 77.503 225.168C77.8054 224.32 77.3821 223.11 77.2006 221.052C65.2269 232.734 51.9226 240.966 38.2556 248.713C35.111 244.9 35.2924 244.96 39.1627 242.176C45.9962 237.334 52.8902 232.613 59.24 227.226C64.5012 222.747 64.1988 222.383 60.0866 216.815C62.2636 215.302 64.0779 213.365 67.283 214.696C68.432 215.181 70.3066 214.636 71.5161 213.97C73.2699 213.002 74.6608 211.488 76.2331 210.217C82.0385 205.557 87.844 200.896 93.6495 196.296C94.3752 195.751 95.2218 195.327 95.8266 194.661C97.2779 193.148 97.3989 191.756 95.4032 190.424C87.1183 184.916 78.9544 179.166 70.5485 173.84C64.8035 170.208 58.3329 170.087 51.8017 171.237C49.6246 171.6 47.5081 172.327 45.452 173.113C36.9252 176.382 33.4782 181.466 33.4782 190.606C33.4782 195.267 33.4177 195.327 28.5193 197.022C27.0679 190.788 27.4913 184.856 30.1521 179.106C33.1758 172.69 38.3161 168.453 44.8472 165.911C48.4756 164.458 52.225 163.126 55.8534 161.674C61.2961 159.495 65.2269 155.863 67.8272 150.355C68.7948 148.236 71.6975 147.086 74.2979 145.028C74.7212 147.207 75.0841 148.357 75.1445 149.507C75.8702 160.705 82.2804 167.908 91.7748 172.629C96.4313 174.929 101.511 176.321 106.47 177.956C110.28 179.227 114.09 180.558 118.02 181.406C122.314 182.314 126.668 182.737 131.022 183.343L131.506 182.435C131.143 181.829 130.962 181.103 130.478 180.558C127.273 177.108 123.524 174.263 118.867 173.355C111.126 171.842 107.075 167.303 105.805 159.616C105.2 155.923 103.628 152.352 102.539 148.781C110.038 148.599 120.137 156.589 120.681 164.337C121.165 170.995 124.733 174.808 130.176 177.471C134.409 179.529 138.763 181.224 144.206 181.708C142.149 176.745 139.126 173.174 135.376 170.571C130.659 167.363 128.906 163.368 129.269 157.739C129.51 153.684 128.724 149.628 128.361 145.634C133.32 146.239 141 154.531 139.851 163.005C139.428 166.153 137.13 169.24 139.67 172.508C142.694 176.442 146.745 178.682 151.462 179.953C156.845 181.406 162.106 180.619 167.125 178.803C170.391 177.592 170.512 176.2 168.576 173.355C166.883 170.874 165.008 168.392 164.041 165.608C162.106 159.858 158.054 157.073 152.369 156.71C147.894 156.408 144.871 154.229 142.391 150.778C140.698 148.418 138.884 146.178 137.191 143.878C146.262 142.002 153.518 144.968 155.333 152.352C155.877 154.652 157.449 156.347 160.05 157.073C160.171 156.529 160.352 156.226 160.352 155.802C160.594 146.36 152.49 135.525 143.117 135.102C132.111 134.617 120.984 135.344 110.038 136.554C102.962 137.341 98.0036 141.941 95.5242 149.084C94.6171 151.686 92.3191 153.865 90.263 155.863C88.2069 157.86 85.7274 159.434 83.4294 161.189C80.7686 155.197 83.369 147.631 89.2954 144.665C91.4724 143.576 93.8914 143.031 96.008 141.881C98.185 140.731 100.181 139.157 102.237 137.704L101.813 136.796C101.39 136.675 100.906 136.433 100.483 136.554C87.2998 138.733 74.2374 141.336 63.1103 149.386C59.9656 151.686 56.7605 154.107 54.1602 157.013C51.5598 159.918 48.4152 161.25 44.9682 162.279C40.4326 150.657 54.9463 124.267 68.311 119.848C68.1901 123.662 66.8596 126.567 63.5336 128.928C57.4862 133.225 53.1321 142.304 53.8578 148.357C54.523 147.934 55.1277 147.631 55.5511 147.207C63.7755 139.399 73.6932 134.617 84.518 131.53C90.3839 129.896 92.2586 127.415 92.3191 121.18C94.5566 120.272 96.8546 119.364 99.0317 118.456C99.3945 118.88 99.5759 119.001 99.6364 119.183C101.934 124.812 103.87 126.143 109.917 125.175C118.988 123.662 123.947 120.03 124.128 111.314C124.189 109.014 124.673 106.714 124.612 104.414C124.491 99.2689 122.616 97.1504 117.416 97.2109C113.303 97.2109 109.252 98.0583 105.139 98.482C104.293 98.603 103.446 98.7846 102.6 98.9057C101.934 94.6082 102.418 94.1845 105.986 93.1555C112.215 91.3396 118.504 89.4633 124.612 87.1632C128.301 85.771 130.72 82.6236 132.232 78.9919C133.925 74.8759 135.558 70.76 137.13 66.6441C138.581 62.8308 138.884 62.5887 143.48 63.5572C142.452 67.6126 141.242 71.6074 140.456 75.7233C138.763 84.9236 137.312 94.1845 135.86 103.385C135.618 104.959 135.618 106.593 135.739 108.227C136.042 112.222 135.86 116.762 140.214 118.638C146.02 121.12 152.128 121.241 157.328 117.004C160.836 114.159 161.32 108.893 158.659 105.201C157.268 103.264 155.393 101.629 153.821 99.8136C147.773 93.095 147.229 82.3815 152.128 76.7523C154.063 79.4761 155.816 82.563 158.175 85.0447C161.743 88.7369 162.348 92.8529 161.501 97.5741C161.078 100.116 161.078 102.719 161.078 105.261C161.078 105.806 161.743 106.351 162.348 107.319C163.134 105.927 163.678 104.959 164.283 103.93C169 95.9398 173.777 88.0106 178.434 80.0209C179.583 78.0234 180.913 77.5997 182.788 78.9313C184.602 80.2024 186.477 81.2919 188.654 82.6841C187.928 84.0157 187.323 85.2868 186.598 86.4369C180.55 97.1504 174.745 107.985 172.326 120.272C171.842 122.693 171.963 125.235 172.144 127.778C174.684 125.841 176.257 123.42 176.015 120.212C175.349 112.343 179.462 107.138 185.932 102.658C186.114 105.685 186.416 108.409 186.416 111.072C186.416 114.583 184.965 117.548 181.941 119.485C177.768 122.209 175.712 126.204 174.866 130.986C172.628 144.241 176.438 155.681 185.086 165.668C185.993 166.697 187.142 167.484 188.23 168.453C190.045 165.124 189.621 160.826 187.202 158.829C181.699 154.35 180.792 148.478 182.546 142.183C183.574 138.37 185.57 134.859 187.202 130.925C188.956 136.312 190.407 141.094 192.101 145.755C193.31 149.084 192.524 152.171 191.859 155.5C191.194 158.829 190.891 162.521 191.556 165.789C192.524 170.39 195.124 173.9 200.386 174.99C203.288 175.595 206.01 177.411 209.457 178.319C208.368 176.261 207.703 173.84 206.131 172.266C197.785 163.792 199.237 155.802 203.651 148.357C205.284 145.634 207.159 143.031 208.852 140.549C210.182 145.573 211.513 150.415 212.722 155.258C213.75 159.313 213.629 163.247 211.513 167C209.154 171.055 209.699 175.111 211.755 179.106C214.657 184.674 219.737 187.882 224.696 191.09C231.892 195.751 239.331 199.988 246.648 204.467C246.95 204.649 247.374 204.709 248.22 205.012C248.039 203.983 248.099 203.135 247.736 202.591C246.89 201.38 246.104 199.867 244.834 199.201C237.698 195.206 234.614 188.73 232.739 181.224C232.134 178.743 230.743 176.503 229.594 173.84C235.763 175.837 241.508 178.137 245.68 183.101C248.16 186.066 249.43 189.456 249.43 193.39C249.43 196.114 249.49 198.838 250.095 201.501C251.123 205.859 253.542 209.188 258.077 210.58C260.98 211.428 263.822 212.396 266.725 213.123C269.326 213.788 270.837 212.517 271.684 209.975C274.466 201.683 270.535 194.056 262.19 191.514C258.259 190.303 255.9 187.338 253.965 183.887C252.212 180.861 250.458 177.835 248.765 174.929C256.263 174.324 266.241 177.471 268.116 188.124C268.479 190.122 269.568 191.938 270.354 193.814C270.596 193.814 270.898 193.754 271.14 193.693C271.261 193.269 271.563 192.846 271.563 192.482C270.717 183.524 268.6 174.99 262.19 168.15C258.017 163.732 252.453 160.523 245.741 164.155C241.75 166.334 237.335 165.608 233.041 164.639C230.562 164.095 228.143 163.429 225.664 163.126C223.184 162.884 220.705 163.126 217.983 163.126C223.003 156.529 229.05 151.686 237.516 150.899C241.81 150.536 245.68 151.928 248.704 155.197C252.272 159.01 256.445 161.855 261.766 163.55C261.766 162.824 261.948 162.279 261.766 161.916C259.166 156.65 256.082 151.807 251.667 147.752C248.22 144.605 245.439 140.731 242.415 137.16C241.508 136.07 240.842 134.799 239.935 133.709C235.702 128.565 231.953 128.565 227.962 133.77C226.026 136.312 223.426 137.523 220.402 137.644C214.718 137.825 210.001 135.465 206.131 131.833C209.88 130.138 213.327 128.08 217.076 126.93C219.737 126.143 222.761 126.264 225.664 126.446C228.143 126.567 230.562 127.415 233.041 127.838C234.009 127.959 235.097 127.717 236.307 127.596C233.404 122.027 223.849 118.941 217.439 121.301C206.675 125.175 199.962 122.996 194.036 113.069C191.919 109.559 190.77 105.443 188.896 100.964C196.394 103.748 202.986 105.987 209.275 108.711C211.755 109.801 213.871 111.919 215.806 113.917C219.132 117.246 224.696 119.304 229.232 118.577C229.292 118.396 229.473 118.154 229.413 118.033C225.361 108.711 215.564 98.603 204.074 99.9347C199.599 100.419 196.092 98.1793 193.189 94.9713C191.556 93.216 190.226 91.2186 188.654 89.2817C194.641 87.4658 202.2 90.4317 205.465 95.5766C207.582 98.9057 208.973 99.4504 213.629 98.5425C212.843 97.5741 212.299 96.7267 211.573 96.0609C200.99 86.5579 189.198 78.8103 176.015 73.4233C168.576 70.3969 160.473 70.4574 152.43 71.0627C149.709 71.3048 147.048 71.6074 144.387 71.9101C144.206 66.8257 145.234 65.6151 150.011 65.0098C155.998 64.223 161.985 63.5572 167.972 62.5887C172.144 61.9229 175.229 57.6859 174.745 53.57C174.624 52.4805 174.14 51.0278 173.293 50.4225C167.306 46.0645 160.654 44.6118 153.639 47.3356C151.583 48.1224 149.406 49.7567 148.378 51.5726C146.504 54.9016 143.964 54.6595 141 54.1753C142.875 46.2461 152.249 39.8906 161.32 40.6775C164.404 40.9196 167.427 41.9486 170.391 42.796C178.494 45.096 181.457 44.1276 186.477 37.4089C188.956 34.0799 190.226 33.7772 194.882 35.5326C192.645 38.3774 190.045 40.9801 188.351 44.1276C186.295 47.8803 184.723 51.9357 183.574 56.0516C182.485 60.0465 184.179 63.4966 187.807 65.5546C191.617 67.7941 195.608 69.731 199.539 71.7285C207.521 75.7839 215.564 79.7182 223.607 83.7131C223.849 83.8341 224.152 83.8341 224.817 83.8947C225.119 80.2024 224.333 76.8734 222.458 73.847C216.955 64.9493 217.318 59.3807 224.031 51.1489C224.938 49.9988 226.026 48.9698 227.296 47.5777C228.445 53.2673 229.836 58.4728 230.441 63.6782C230.743 66.0993 230.139 69.1258 228.808 71.1232C224.515 77.3576 226.51 82.8052 230.26 88.0711C231.832 90.2501 233.948 92.0055 235.884 93.9424C241.629 99.8136 247.253 105.866 253.24 111.556C257.654 115.733 262.492 119.606 267.33 123.299C269.628 125.054 271.2 124.328 272.289 121.725C276.22 112.767 272.894 98.8452 265.274 92.7318C264.367 92.0055 262.613 91.5212 261.585 91.8844C254.51 94.3661 248.523 92.6107 243.201 87.6474C238.726 83.5315 235.884 78.4471 234.009 71.9706C239.573 75.9049 245.499 75.9655 251.244 76.8129C258.017 77.7813 262.432 81.4735 264.911 87.7079C266.483 91.5818 268.842 94.6687 273.075 96.424C273.317 95.5766 273.68 94.9713 273.619 94.3661C273.256 87.2842 271.503 80.5656 267.39 74.7549C262.674 68.0363 255.417 67.6731 248.16 67.6126C240.963 67.6126 235.823 64.223 233.525 57.7464C232.981 56.1727 232.739 54.5384 232.195 52.1778C236.428 53.9332 240.117 55.0832 243.382 56.9596C245.318 58.1096 247.011 60.1676 248.16 62.1045C250.276 65.6756 252.212 66.7652 256.808 65.8572C250.035 53.3279 237.637 48.3646 225.966 42.4933C228.869 36.8642 232.618 35.0483 238.061 36.9852C243.382 38.8616 248.523 41.2222 253.723 43.3407C255.477 44.067 257.291 45.2171 259.045 45.2171C260.557 45.2171 262.976 44.4302 263.581 43.2197C270.051 30.5087 281.239 23.669 293.636 18.282C296.055 17.253 298.534 16.4056 300.893 15.3161C303.796 13.9845 305.67 14.9529 307.122 17.7978C303.191 20.0978 299.26 22.3374 295.45 24.7585C287.347 29.964 280.332 36.2589 277.308 45.8224C275.373 51.8147 277.066 56.9596 282.569 60.7123C283.235 58.5938 283.9 56.6569 284.384 54.72C284.686 53.3279 284.928 51.8752 284.807 50.5436C284.081 44.1276 286.561 39.2248 291.58 35.351C292.668 34.5036 293.394 33.2325 294.362 32.143C297.204 37.9537 295.571 44.9144 290.37 49.1514C283.416 54.8411 284.928 67.8547 292.971 72.1522C295.329 73.4233 297.93 72.8785 299.804 70.76C302.405 67.7336 303.433 63.4361 301.195 61.7413C295.45 57.2622 296.781 51.9963 298.776 46.4277C299.139 45.3381 299.562 44.2486 299.986 43.0381C305.307 47.6382 306.819 53.7516 304.279 59.6833C303.191 62.165 303.13 64.5256 304.582 66.8257C309.601 65.0704 314.499 56.899 313.653 51.9357C312.081 42.9775 306.94 36.1378 301.014 29.6613C299.986 28.5718 298.958 27.4823 297.99 26.4533C301.86 21.7321 304.158 21.0663 308.392 24.8796C313.532 29.4797 318.491 34.443 322.724 39.8906C326.231 44.4907 330.344 45.3381 335.181 43.5828C341.531 41.2827 347.639 38.1958 354.049 36.38C364.269 33.4746 374.731 31.2956 385.072 28.6929C389.003 27.7244 390.696 30.2666 392.752 33.4141C377.694 37.2879 364.33 44.0065 352.235 53.2673C352.356 53.57 352.417 53.8726 352.537 54.1753C353.747 53.8121 354.956 53.4489 356.105 53.0252C358.645 52.0568 361.064 50.7252 363.665 50.0593C368.019 48.9698 371.708 50.6041 375.094 53.57C369.349 56.9596 363.665 58.6544 357.375 56.2332C352.719 54.4779 348.546 55.4464 345.16 58.8965C341.713 62.4676 338.689 66.3415 335.423 70.0337C334.214 71.4258 332.944 72.8785 331.674 74.2707C331.795 74.5733 331.916 74.876 331.976 75.1786C333.307 74.7549 335.121 74.6944 335.907 73.7864C341.168 67.7336 348.062 65.8572 355.622 65.4335C356.831 65.373 357.98 65.0098 359.673 64.6467C356.771 69.9126 354.049 74.8154 348.97 77.7208C345.825 79.5366 342.317 79.9603 339.052 78.4471C333.428 75.7233 328.771 77.1155 324.417 81.0498C315.467 89.1606 311.536 99.9347 308.21 111.435C311.355 111.677 313.109 110.164 314.379 108.288C316.011 105.866 317.281 103.203 318.491 100.6C320.305 96.6056 323.026 94.0634 327.32 92.5502C332.702 90.6738 337.782 88.0106 343.225 85.5289C341.773 94.0634 338.749 101.872 330.827 106.653C328.529 108.045 325.385 108.832 322.784 108.53C317.281 107.864 313.35 110.406 310.69 114.34C308.573 117.427 307.605 121.422 306.517 125.114C305.791 127.475 307.605 128.322 309.541 127.657C311.294 127.051 312.988 126.022 314.439 124.812C316.132 123.299 317.644 121.422 319.035 119.606C323.51 113.675 329.436 112.827 336.089 114.885C338.326 115.551 340.443 116.822 343.345 118.154C337.54 120.575 332.642 122.875 327.562 124.691C325.748 125.357 323.51 125.417 321.635 124.933C319.035 124.267 317.1 125.114 315.225 126.567C308.513 131.833 305.67 142.849 308.996 150.718C310.266 153.623 312.02 153.926 314.62 151.928C322.845 145.634 331.009 139.157 339.415 133.225C343.466 130.32 348.062 127.959 352.658 126.022C362.153 121.967 365.116 112.343 361.064 103.385C359.19 99.2689 356.952 95.3345 357.678 90.4923C358.282 86.5579 358.524 82.563 358.948 78.6892C364.753 81.1104 371.95 92.4292 369.531 98.603C368.382 101.508 367.112 104.353 366.205 107.319C365.116 111.011 364.33 114.764 363.846 118.698C371.042 116.277 375.457 111.496 377.211 104.535C378.118 100.964 378.42 97.1504 378.541 93.4581C378.662 90.1896 377.815 86.9211 375.094 84.7421C372.01 82.2604 371.103 78.8708 370.317 75.2391C369.41 70.9416 368.382 66.6441 367.353 62.3466C371.405 61.6203 379.63 66.1599 382.472 70.9416C385.435 75.9655 385.375 81.1104 382.956 86.3158C380.476 91.6423 379.69 97.2714 380.234 103.143C380.355 104.172 380.658 105.201 381.021 106.895C382.472 105.927 383.681 105.382 384.528 104.474C389.487 98.9662 393.66 92.9134 393.841 85.2868C393.962 81.413 392.813 77.3576 391.422 73.6654C387.552 63.3756 380.476 55.1437 373.34 47.0935C372.796 46.4882 372.252 45.9434 371.708 45.2776C371.526 45.0355 371.405 44.7329 371.042 44.067C373.461 42.9775 375.699 41.8275 378.178 41.0406C378.904 40.7985 380.295 41.5249 380.96 42.2512C385.798 47.3961 390.394 52.7226 395.353 57.7464C397.288 59.6833 399.646 61.4992 402.126 62.4677C405.21 63.6782 407.145 61.9229 407.266 58.5938C407.266 57.3227 407.266 55.9306 406.782 54.72C402.67 43.0381 396.925 32.3851 387.249 24.3348C377.876 16.5267 367.051 13.1371 354.715 14.045C352.054 14.2266 349.211 12.5318 346.43 11.6844C346.43 11.3212 346.551 10.9581 346.551 10.5949C346.913 10.4133 347.276 10.0501 347.7 9.98961C364.148 8.35535 379.63 10.5949 392.148 22.3979C396.623 26.6349 400.251 31.9009 404.061 36.8037C407.266 40.9801 410.592 44.3697 416.519 43.8855C417.607 43.8249 418.877 46.125 420.328 47.5777C416.277 49.8172 415.188 52.6621 416.216 56.1727C417.305 59.8044 419.724 61.9834 423.775 62.5887C433.935 63.9809 444.155 65.3125 454.194 67.3099C464.595 69.3679 474.331 73.3627 480.137 82.8657C483.221 87.9501 485.338 93.7608 487.333 99.3899C488.785 103.627 489.389 108.106 490.357 112.525C490.478 113.069 490.236 113.675 489.51 114.583C488.119 112.706 486.426 111.011 485.459 108.953C483.886 105.624 482.495 102.114 481.588 98.482C477.839 83.7131 468.163 75.5418 453.529 72.7575C444.699 71.0627 435.81 69.7916 426.86 71.0021C420.087 71.9101 414.886 75.6023 411.983 81.5946C409.806 86.0737 408.355 90.9765 407.206 95.8187C406.238 99.9952 409.322 103.627 413.555 104.051C416.942 104.414 420.208 104.111 422.989 101.811C425.227 99.9347 426.497 97.5741 426.134 94.6687C425.529 89.7054 427.827 86.1947 431.577 83.2894C434.661 80.9288 437.624 78.3866 440.769 75.8444C441.857 81.292 441.555 86.679 439.257 91.9449C437.805 95.3345 435.084 97.2714 431.879 98.6636C429.158 99.8741 426.376 101.085 424.501 104.777C432.847 104.716 440.708 104.716 448.872 107.803C447.36 111.919 446.03 116.035 444.276 119.909C443.913 120.756 441.797 121.059 440.406 121.18C428.19 122.088 415.853 122.512 403.698 123.964C397.772 124.691 392.087 127.475 385.979 129.412C388.943 133.286 394.748 134.617 398.679 132.196C402.973 129.533 407.508 129.17 412.285 129.412C416.579 129.594 420.873 129.412 425.045 129.412C423.473 138.673 409.504 144.968 400.614 139.641C395.776 136.736 390.757 134.375 385.072 134.496C381.323 134.557 377.211 134.799 373.885 136.312C362.516 141.639 352.114 148.599 343.104 157.437C340.201 160.281 337.842 163.792 335.605 167.242C332.339 172.205 329.316 177.35 326.231 182.374C322.119 189.032 321.938 196.296 323.329 203.741C323.812 206.343 327.138 207.675 330.223 206.828C337.661 204.83 343.104 196.296 341.047 188.911C338.145 178.621 341.35 170.45 349.09 163.792C351.872 161.371 355.077 159.434 358.101 157.315C357.375 163.913 356.65 170.087 355.924 176.261C355.319 181.587 353.142 185.885 349.211 189.698C346.49 192.361 344.676 195.993 342.559 199.262C342.076 199.988 342.136 201.077 341.894 202.046C342.136 202.288 342.317 202.53 342.559 202.772C345.704 201.199 348.969 199.806 352.054 197.991C358.041 194.48 362.999 189.94 365.358 183.282C366.265 180.679 365.902 177.592 366.386 174.748C366.87 171.842 367.293 168.816 368.321 166.032C369.228 163.61 371.042 161.613 372.373 159.313C374.066 156.287 375.638 153.2 377.392 149.931C381.323 154.35 382.17 159.797 381.383 165.487C380.597 171.237 377.695 175.777 372.554 178.864C367.777 181.708 366.749 186.672 365.539 191.393C365.781 191.635 366.084 191.938 366.325 192.18C368.563 190.788 370.921 189.577 373.099 188.064C378.783 184.13 383.863 179.59 387.128 173.355C387.854 171.963 388.701 170.45 388.882 168.876C389.668 163.126 393.297 160.221 398.376 158.284C402.549 156.65 406.54 154.592 410.35 152.836C411.016 159.797 404.061 171.176 394.567 172.629C389.426 173.416 385.556 177.835 385.133 183.282C385.314 183.343 385.556 183.585 385.677 183.524C394.99 179.893 404.122 175.837 410.834 167.968C411.439 167.303 412.044 166.576 412.467 165.789C415.551 159.192 420.873 154.531 426.557 150.294C439.68 140.549 445.727 126.567 450.082 111.496C453.347 100.177 453.71 88.858 451.049 77.4181C450.868 76.5707 450.868 75.6628 450.747 74.6338C454.375 74.9365 457.217 75.2391 458.971 79.2945C461.451 85.1052 466.954 87.8895 472.638 89.9475C476.932 91.5212 477.053 91.6423 477.658 96.5451C476.932 96.6661 476.206 96.9083 475.42 96.8477C469.07 96.3635 465.442 99.8136 463.204 105.201C461.995 108.167 461.209 111.314 460.302 114.401C458.004 122.149 455.766 129.836 453.468 137.583C453.287 138.249 453.105 138.915 452.984 139.581C453.166 139.823 453.408 140.065 453.589 140.368C455.403 139.157 457.157 137.946 458.971 136.736C461.632 134.981 464.111 132.68 467.014 131.773C472.759 129.957 478.02 132.317 483.523 134.799C479.29 136.736 475.48 138.854 471.429 140.125C469.01 140.912 466.047 140.912 463.507 140.368C459.878 139.52 456.915 140.125 454.254 142.486C452.077 144.423 449.961 146.541 448.207 148.781C444.276 153.744 440.406 158.829 436.717 163.974C433.451 168.453 434.177 170.692 439.317 172.569C446.393 175.171 452.984 174.082 458.971 169.482C461.39 167.605 462.176 164.942 462.358 162.037C463.144 150.234 471.066 142.486 483.221 141.881C481.407 146.541 479.714 151.081 477.899 155.681C476.267 159.737 473.001 162.218 469.494 164.458C467.014 166.032 464.595 167.605 462.418 169.542C461.148 170.632 460.483 172.387 459.455 173.961C465.744 176.14 478.746 172.992 482.254 168.211C483.886 165.971 484.854 162.945 485.156 160.221C485.519 156.529 486.85 153.623 489.571 151.323C492.957 148.357 496.465 145.512 500.093 142.486C500.456 148.115 500.335 153.744 497.614 158.829C496.344 161.189 494.046 163.126 491.929 164.821C489.813 166.516 487.152 167.484 484.975 169.058C483.705 169.966 482.858 171.54 481.528 173.113C487.454 174.506 492.595 174.263 497.614 172.69C501.363 171.54 505.113 170.269 508.741 168.816C514.426 166.576 517.812 161.008 517.389 154.592C516.784 145.755 515.937 136.917 515.212 128.08C515.151 127.293 515.212 126.507 515.212 125.72C520.594 126.083 521.561 126.809 522.166 131.652C522.831 136.917 523.073 142.304 523.799 147.57C524.464 152.776 526.46 157.194 531.6 159.676C536.136 161.855 537.647 165.063 537.406 170.571C530.27 170.571 524.646 174.869 518.477 177.714C512.551 180.437 506.322 182.495 500.335 185.159C498.34 186.066 496.344 187.58 495.134 189.335C493.441 191.817 494.53 194.601 496.949 196.417C500.879 199.383 504.75 202.47 508.681 205.436C511.16 207.312 513.579 209.309 516.24 210.944C521.501 214.152 525.371 213.788 529.363 209.007C532.447 205.375 534.745 201.077 537.466 196.901C541.76 197.809 542.304 198.535 540.127 202.651C538.313 206.222 536.075 209.612 533.656 212.82C529.302 218.449 529.363 221.778 534.442 226.741C535.833 228.073 537.285 229.284 538.857 230.736C537.768 232.976 536.74 235.094 535.47 237.697C532.205 234.973 529.242 232.431 526.218 229.889L525.069 230.313C525.311 233.521 525.371 236.729 525.795 239.937C526.157 242.6 526.883 245.263 527.548 247.866C529.907 257.187 527.367 264.995 520.412 271.411C518.659 273.046 516.784 274.438 515.091 275.83C515.272 269.172 515.091 262.635 515.756 256.158C516.119 252.829 517.147 248.895 519.263 246.474C524.585 240.542 524.101 233.763 520.292 227.831C517.933 224.26 515.151 220.628 511.704 218.207C505.778 213.909 499.247 210.52 492.957 206.767C492.353 206.404 491.506 206.464 490.236 206.222C491.869 212.275 494.893 216.754 499.126 220.689C502.573 223.957 506.02 227.528 508.499 231.584C512.732 238.605 511.462 246.05 508.318 254.282C506.504 246.958 500.94 243.508 496.707 238.908C493.925 235.881 492.292 232.431 492.413 228.255C492.413 226.923 492.413 225.652 492.534 224.32C492.897 214.273 488.301 206.767 479.109 202.53C478.565 202.288 478.02 202.046 477.476 201.683C464.898 193.814 450.807 195.327 436.959 195.146C436.656 195.146 436.354 195.267 436.112 195.388C435.931 195.448 435.81 195.63 435.386 195.933C437.866 197.022 440.285 197.869 442.462 199.201C447.36 202.228 452.017 205.557 456.794 208.704C458.971 210.157 461.088 211.791 463.446 212.88C470.764 216.331 474.755 222.323 475.601 230.131C476.206 235.76 475.722 241.571 475.722 247.261C469.735 241.026 463.87 235.094 458.245 228.86C455.101 225.41 454.012 220.991 453.952 216.27C453.77 207.372 445.123 200.775 435.87 203.014C437.261 204.891 438.471 206.707 439.741 208.401C441.797 211.125 444.095 213.728 446.09 216.512C452.319 225.47 451.835 233.884 444.639 242.116C443.611 243.326 442.522 244.537 440.89 246.292C441.373 239.029 437.926 233.46 435.991 227.407C434.842 223.776 434.54 220.144 436.052 216.452C438.652 210.278 436.233 204.951 430.065 202.349C419.784 197.991 409.383 198.293 399.102 202.046C390.152 205.314 381.262 209.007 372.615 212.941C368.684 214.757 365.358 217.723 361.729 220.144C361.911 220.568 362.092 220.991 362.213 221.476C365.116 221.052 368.14 221.052 370.861 220.204C377.029 218.268 382.956 215.786 389.124 213.909C392.329 212.941 395.837 212.275 399.163 212.215C408.959 212.033 417.184 221.233 418.938 231.886C412.709 228.255 406.057 228.497 399.526 227.952C397.59 227.77 395.716 226.257 393.962 225.107C392.511 224.199 391.362 222.928 389.971 221.839C386.645 219.236 383.077 218.268 379.025 220.325C376.969 221.354 374.731 222.02 372.675 223.049C371.587 223.594 370.68 224.562 369.712 225.289C369.712 225.591 369.712 225.955 369.772 226.257C372.312 226.923 374.792 227.71 377.392 228.255C379.085 228.618 380.779 228.678 382.472 228.799C392.873 229.586 398.679 234.308 401.098 244.537C402.005 248.471 402.065 252.648 402.126 256.885C398.135 250.771 391.845 248.35 385.919 245.263C383.621 244.053 381.444 241.631 380.355 239.21C377.755 233.4 373.885 229.768 367.414 228.86C360.762 227.952 354.352 229.163 349.453 233.339C344.192 237.818 341.713 244.476 339.959 251.255C338.689 256.037 339.475 260.637 340.866 265.237C342.62 271.169 344.071 277.222 342.196 283.335C340.866 287.633 338.81 291.749 337.117 295.925C328.167 317.958 326.292 340.414 333.972 363.233C337.177 372.736 343.648 379.394 352.84 383.328C357.92 385.507 361.548 389.018 364.632 393.679C367.293 397.734 370.74 401.608 374.61 404.453C385.737 412.563 397.409 419.645 411.378 421.824C424.199 423.822 436.838 424.124 449.356 420.069C459.939 416.619 470.461 416.982 481.225 419.282C496.525 422.551 511.825 422.551 526.762 417.103C529.121 416.256 531.298 414.984 533.596 413.895C535.531 417.769 535.41 418.556 531.782 420.553C526.218 423.58 520.352 426.122 514.909 429.39C498.702 439.075 488.301 453.178 484.431 471.76C483.705 475.15 481.891 475.513 478.625 475.392C481.225 457.96 487.212 442.343 499.549 429.39C499.065 429.027 498.763 428.664 498.46 428.664C491.446 428.785 484.31 428.361 477.416 429.209C469.977 430.177 464.595 437.077 465.079 443.796C465.381 448.033 467.256 451.483 471.126 453.662C472.759 454.57 473.727 454.267 474.09 452.27C474.815 448.033 472.88 444.825 470.038 442.041C467.558 439.559 467.498 439.196 469.856 436.169C477.658 439.014 481.83 452.512 476.69 459.049C476.025 459.896 473.908 460.26 472.82 459.897C464.172 457.112 460.241 450.575 459.515 441.92C459.274 438.893 458.185 438.348 455.585 438.954C447.421 440.83 441.797 445.793 438.35 453.238C436.294 457.717 437.926 462.862 442.401 465.949C444.337 467.281 446.635 468.249 448.933 468.976C451.714 469.944 453.045 468.794 452.742 465.889C452.138 460.683 449.174 457.052 444.82 454.328C443.55 453.541 441.615 453.178 443.006 450.878C444.216 448.88 445.425 448.275 447.663 449.425C454.98 453.117 459.878 463.407 457.701 471.215C457.338 472.486 455.585 474.121 454.254 474.363C442.643 476.118 426.376 465.102 432.06 449.183C432.967 446.701 433.754 444.22 434.903 441.859C436.052 439.498 435.265 437.864 433.27 436.775C431.698 435.927 429.944 435.261 428.19 435.14C418.877 434.414 409.625 433.869 400.312 433.264C400.07 439.317 406.057 446.943 412.769 446.822C417.184 446.822 421.598 446.338 426.013 446.096C427.222 446.035 428.371 446.096 429.581 446.096C429.581 450.878 428.734 451.665 424.804 452.754C421.417 453.723 418.151 454.994 414.946 456.507C414.1 456.931 413.253 458.504 413.314 459.473C413.495 461.954 414.039 464.436 414.644 466.918C415.853 472.002 418.756 475.271 424.017 476.905C438.592 481.505 453.287 481.747 468.224 479.326C475.843 478.116 483.584 477.45 491.325 476.481C492.836 476.3 493.623 476.905 493.562 478.479C493.562 479.871 493.744 481.202 491.627 481.505C480.621 483.139 469.615 485.016 458.548 486.589C446.816 488.284 435.084 488.587 423.352 486.711C418.454 485.924 416.156 487.195 414.1 491.795C411.197 498.392 408.718 505.293 405.21 511.588C399.949 520.788 392.934 528.717 385.133 536.465C383.863 535.012 382.411 533.802 381.625 532.288C381.262 531.622 381.746 530.109 382.29 529.262C386.947 522.241 392.45 515.643 396.381 508.198C408.415 485.197 403.396 460.683 383.863 443.312C372.554 433.204 359.129 427.211 344.797 422.974C339.112 421.279 333.851 418.919 329.074 415.529C328.287 414.984 327.441 414.44 325.687 413.411C325.869 416.013 325.929 417.769 326.11 419.585C327.078 428.361 331.311 434.414 339.838 437.743C349.393 441.496 358.827 445.551 367.958 450.212C380.779 456.749 389.366 466.736 391.12 481.626C392.39 492.219 389.789 501.782 384.105 510.68C376.485 522.604 365.721 531.441 354.715 540.036C353.505 540.944 352.296 541.852 351.086 542.76C345.523 546.755 343.89 546.694 338.084 541.852C339.838 539.915 340.685 536.888 344.494 538.281C345.341 538.583 346.792 538.22 347.579 537.615C358.645 529.807 369.41 521.575 376.425 509.651C380.476 502.751 382.714 495.184 381.625 487.074C380.234 476.965 374.187 469.884 365.539 465.344C360.52 462.681 354.896 461.228 349.453 459.533C346.792 458.686 345.281 460.199 344.797 463.286C341.894 482.11 334.879 499.361 325.022 515.522C324.054 517.035 323.026 518.548 321.877 520.364C320.668 519.759 319.519 519.214 318.43 518.609C317.402 518.064 316.314 517.459 315.467 516.975C317.1 511.588 318.914 506.443 320.184 501.237C324.357 484.168 320.668 468.431 311.294 453.904C307.243 447.67 302.526 441.859 298.111 435.867C297.446 435.019 296.599 434.293 295.39 433.022C291.701 437.683 288.133 441.98 284.807 446.459C277.852 455.902 272.228 466.01 270.293 477.692C267.632 493.671 270.535 508.622 279.788 522.059C283.9 528.051 288.496 533.62 293.213 539.794C292.306 540.762 291.157 541.973 289.705 543.426C285.956 539.431 282.509 535.678 279.001 531.925C261.162 512.617 251.063 489.555 246.467 463.891C245.741 459.836 244.471 458.928 240.54 459.836C233.223 461.531 226.268 464.012 220.342 468.915C210.122 477.389 206.433 489.616 211.271 502.024C213.327 507.351 216.955 512.132 219.979 517.096C220.705 518.306 221.793 519.275 222.821 520.485C222.156 521.212 221.491 521.817 220.947 522.483C219.374 524.299 218.044 524.299 216.23 522.483C207.582 513.585 201.172 503.416 200.083 490.766C198.692 474.726 204.861 462.015 218.346 453.117C220.705 451.544 223.063 450.03 225.664 448.88C234.553 444.885 243.443 440.83 252.514 437.198C260.315 434.051 264.185 428.301 265.213 420.311C265.455 418.374 265.516 416.377 265.758 413.592C263.641 414.924 262.311 415.953 260.799 416.619C256.082 418.858 251.486 421.461 246.527 422.974C230.26 428.059 215.081 435.019 203.228 447.67C194.278 457.173 188.896 468.37 188.412 481.505C187.928 494.155 192.04 505.535 198.692 516.006C207.824 530.351 219.677 542.276 232.497 553.292C238.968 558.86 245.801 563.945 252.453 569.271C249.49 572.237 246.406 572.963 242.959 570.119C234.493 563.158 226.087 556.076 218.165 548.57C207.038 538.039 196.273 527.143 187.686 514.311C183.272 507.714 180.308 500.45 177.647 493.066C175.349 486.832 174.08 486.166 167.427 487.195C150.918 489.616 134.711 488.526 118.746 483.563C114.997 482.413 115.057 482.352 115.42 478.297C120.439 479.084 125.459 479.992 130.538 480.597C143.177 481.989 155.635 481.202 167.79 476.844C173.051 474.968 175.833 471.457 176.922 466.252C176.982 465.828 177.043 465.465 177.103 465.041C178.736 456.87 178.676 456.749 170.633 454.025C164.162 451.846 157.631 451.544 150.979 452.936C144.508 454.328 139.428 459.533 138.581 465.526C138.098 468.976 139.368 470.186 142.633 469.097C148.922 466.978 153.881 463.649 154.184 456.083C154.305 453.057 156.965 454.509 158.477 454.388C159.082 454.388 160.533 455.841 160.412 456.446C159.808 459.231 159.324 462.378 157.812 464.678C153.458 471.155 147.229 474.786 139.247 474.786C134.59 474.786 132.957 473.092 132.897 468.37C132.716 457.778 140.456 448.517 150.979 447.125C159.203 446.035 167.427 445.612 175.652 446.943C183.332 448.154 190.952 441.193 191.194 432.538C189.803 432.84 188.472 433.264 187.142 433.385C179.945 434.051 172.689 434.596 165.492 435.201C163.98 435.322 162.469 435.383 161.017 435.685C156.421 436.654 155.514 438.469 156.784 443.917C151.765 444.462 146.806 446.157 142.27 441.98C140.638 440.467 137.977 439.862 135.679 439.196C132.534 438.288 132.171 438.772 131.808 442.041C130.841 450.454 127.091 456.87 118.807 460.078C116.146 461.107 114.634 460.199 113.545 457.839C110.098 450.333 113.606 440.164 121.105 436.29C123.705 438.954 123.765 439.801 121.165 442.222C118.444 444.825 116.569 447.851 117.053 451.846C117.416 454.631 118.202 454.994 120.56 453.602C125.519 450.696 127.696 443.554 125.277 438.227C123.463 434.293 120.439 431.509 116.327 430.177C108.466 427.635 100.483 428.301 91.8353 428.967C92.6819 430.419 93.2867 431.388 93.8309 432.356C98.306 439.741 103.386 446.883 107.014 454.691C110.764 462.923 113.183 471.821 112.941 481.021C112.88 484.713 111.973 488.405 111.368 492.037C110.764 495.729 108.345 497.606 104.777 497.969C103.204 498.15 101.572 498.15 99.9388 498.271C97.8827 498.392 97.7617 496.94 97.6408 495.487C97.5198 493.974 97.8827 493.127 99.6969 492.884C106.228 492.098 106.168 492.642 107.377 484.471C108.586 476.239 106.893 468.37 103.567 460.865C97.7617 447.73 89.2349 436.835 76.475 429.753C74.7212 428.785 74.7817 427.695 75.205 426.061C76.6564 420.19 76.5959 420.372 82.5223 420.856C92.6214 421.643 102.721 421.582 112.578 419.161C121.044 417.042 129.329 417.829 137.674 419.585C145.173 421.098 152.672 422.793 160.231 423.58C174.382 425.032 187.928 421.885 200.627 415.711C210.001 411.111 219.314 406.208 228.324 400.881C236.307 396.1 241.084 388.352 244.41 379.878C246.648 374.128 249.248 368.741 253.663 364.443C263.52 354.88 268.479 342.835 271.563 329.761C275.01 315.113 276.28 300.344 273.74 285.393C271.745 273.711 266.907 263.664 257.896 255.613C253.602 251.74 250.095 246.958 246.225 242.6C244.834 241.026 243.443 239.331 241.81 238.121C236.609 234.247 231.711 234.792 227.357 239.573C226.752 240.239 226.087 240.845 225.543 241.631C222.579 245.868 218.649 248.047 213.387 248.35C209.336 248.592 205.405 249.803 201.353 250.59L201.414 250.469Z" fill="#11141D"/>
<path d="M219.193 569.15C219.193 572.6 219.132 576.05 219.253 579.5C219.253 579.985 220.342 580.65 221.007 580.832C221.975 581.074 223.063 581.135 224.031 580.953C227.841 580.166 230.622 581.8 233.344 585.008C231.288 585.372 229.534 585.916 227.72 585.977C224.031 585.977 220.281 585.856 216.592 585.493C215.685 585.432 214.355 584.464 214.174 583.677C212.299 574.598 212.722 565.7 217.56 557.044C220.402 560.252 222.942 563.218 225.603 566.003C240.117 581.256 257.594 591.485 278.397 595.056C299.623 598.748 320.244 596.448 339.294 585.795C343.466 583.495 346.732 584.04 350.905 586.461C329.497 599.172 307.001 605.77 282.267 601.896C257.836 598.083 236.67 587.732 220.16 568.666C219.858 568.787 219.495 568.968 219.193 569.09V569.15Z" fill="#11141D"/>
<path d="M176.68 563.218C151.644 569.15 136.223 552.081 138.702 531.441C140.94 512.798 153.881 502.569 172.084 501.54C175.894 501.298 176.317 501.903 176.256 505.595C176.136 520.849 165.069 536.162 150.918 540.581C149.648 541.004 147.834 542.276 147.411 539.733C147.048 537.796 145.657 535.496 149.225 534.467C158.538 531.683 164.887 525.63 167.79 516.248C168.213 514.917 168.395 513.464 168.516 512.072C168.758 508.864 168.032 508.198 164.948 508.682C157.631 509.832 151.946 513.646 148.499 520.183C143.843 528.899 143.722 537.978 147.29 547.057C149.709 553.231 154.849 556.379 160.957 557.831C164.464 558.679 168.153 559.163 171.721 558.981C175.107 558.8 176.136 560.313 176.801 563.279L176.68 563.218Z" fill="#11141D"/>
<path d="M452.501 533.136C446.998 533.983 446.816 533.862 446.212 528.899C444.821 518.064 436.052 509.651 425.288 508.743C423.232 508.561 422.566 509.288 422.808 511.285C423.534 519.154 426.86 525.691 433.331 530.231C440.467 535.194 448.51 537.01 457.157 535.678C463.93 534.649 468.768 530.957 472.155 525.086C474.513 520.97 474.453 520.97 479.472 522.12C479.049 523.27 478.746 524.359 478.202 525.388C471.671 538.704 459.032 544.515 443.853 541.247C427.223 537.676 414.947 522.059 415.189 505.051C415.189 502.69 415.914 501.54 418.454 501.601C433.028 501.964 448.872 509.227 452.259 529.202C452.501 530.473 452.38 531.744 452.501 533.196V533.136Z" fill="#11141D"/>
<path d="M206.796 541.004C207.401 541.549 207.763 541.731 208.005 542.033C211.573 545.423 211.513 545.423 209.517 549.781C205.586 558.437 204.619 567.576 204.861 576.958C204.861 578.048 204.982 579.137 205.042 580.529C204.014 580.529 203.228 580.711 202.502 580.529C190.287 577.564 178.252 567.516 176.136 553.655C174.442 542.699 181.82 532.591 192.887 531.078C193.854 530.957 195.548 531.865 195.911 532.712C199.66 541.126 197.422 552.868 189.198 558.013C188.472 558.497 186.598 558.558 186.295 558.013C185.449 556.802 183.937 555.229 186.114 553.655C190.166 550.749 192.101 546.634 191.98 541.67C191.859 538.402 190.649 537.736 187.807 539.31C183.574 541.67 181.215 545.362 181.639 550.205C182.485 560.01 188.23 566.547 196.515 571.208C196.757 571.329 197.06 571.208 197.725 571.329C199.66 561.039 200.748 550.447 206.856 541.004H206.796Z" fill="#11141D"/>
<path d="M283.053 522.301C281.844 520.667 280.937 519.396 279.969 518.125C283.597 515.401 287.226 513.04 290.37 510.196C297.869 503.416 302.949 495.185 302.768 484.653C302.707 479.084 301.014 473.939 297.869 469.339C295.995 466.555 295.027 466.494 293.394 469.339C287.71 479.084 286.682 489.071 292.124 499.24C294.18 503.174 294.241 503.114 290.431 506.201C278.518 491.432 279.606 470.913 295.813 455.357C302.889 462.499 307.605 470.913 308.513 481.021C309.903 496.092 302.405 506.988 291.399 516.127C288.859 518.246 286.077 520.062 283.053 522.301Z" fill="#11141D"/>
<path d="M492.836 101.811C498.037 101.327 499.065 102.235 499.126 107.259C499.186 111.496 499.247 115.733 499.428 119.909C499.67 124.57 502.089 127.778 506.141 129.896C506.685 130.199 507.169 130.623 507.713 130.744C513.821 132.257 514.305 136.736 513.7 141.82C505.052 138.37 496.465 134.678 487.696 131.652C478.867 128.625 469.856 126.265 460.604 123.48C461.632 119.607 462.721 115.793 463.87 111.435C467.74 113.009 471.308 114.401 474.876 115.854C478.141 117.185 481.346 118.699 484.673 119.788C489.692 121.422 492.353 119.788 492.655 114.643C492.957 110.346 492.655 106.048 492.655 101.751L492.836 101.811Z" fill="#11141D"/>
<path d="M235.702 21.49C232.134 20.0374 230.018 21.0663 227.961 22.4585C223.124 25.727 217.983 27.6639 211.996 26.0902C210.968 25.8481 210.001 25.3639 208.973 25.0612C215.202 17.7373 222.942 16.9504 231.408 18.8268C235.218 19.6742 238.968 19.7953 242.657 18.2215C245.257 17.132 246.708 19.1294 248.764 20.34C245.499 22.4585 242.475 24.2743 239.633 26.2718C227.599 34.8063 218.044 45.883 208.428 56.8991C205.889 59.8045 203.409 62.6493 200.99 65.6152C199.841 67.0073 198.813 67.431 197.18 66.402C195.427 65.3125 193.491 64.3441 191.073 63.0125C194.761 58.5334 198.087 54.1753 201.716 50.0594C210.182 40.617 219.798 32.5667 230.38 25.606C232.074 24.5165 233.586 23.0638 235.642 21.369L235.702 21.49Z" fill="#11141D"/>
<path d="M526.279 139.762C529.847 142.607 533.414 145.452 537.648 148.842C537.466 146.844 537.466 145.513 537.164 144.241C534.08 132.015 526.037 125.054 513.881 122.512C511.342 121.967 508.802 121.362 506.262 120.756C501.908 119.727 501.726 119.364 502.694 114.764C524.343 116.398 540.792 126.083 544.905 151.323C546.9 163.429 547.323 175.535 545.509 187.701C545.509 188.003 545.267 188.246 545.207 188.488C541.034 187.761 540.671 186.974 540.55 183.101C540.369 177.411 540.188 171.661 539.341 166.032C538.434 159.797 534.926 154.652 529.847 151.081C525.734 148.236 525.734 144.423 525.553 140.368L526.339 139.823L526.279 139.762Z" fill="#11141D"/>
<path d="M297.385 581.801C298.171 580.953 298.776 580.409 299.26 579.803C301.135 577.503 302.888 577.261 305.247 579.44C307.726 581.74 310.689 582.769 314.136 581.196C334.637 572.177 353.505 560.858 368.684 544.031C369.833 542.76 370.921 541.489 372.433 539.794C373.703 541.307 375.034 542.518 375.88 544.031C376.243 544.636 376.001 546.029 375.517 546.573C358.585 565.398 337.782 578.411 314.439 587.793C310.569 589.367 307.303 589.064 304.098 586.522C302.042 584.888 299.865 583.496 297.385 581.801Z" fill="#11141D"/>
<path d="M415.188 555.774C411.983 554.684 409.806 554.079 410.048 549.963C410.411 544.878 407.992 540.581 403.033 538.281C400.433 537.07 399.586 537.554 399.405 540.52C399.102 546.573 401.461 551.476 406.601 554.563C416.337 560.374 426.557 560.797 436.475 555.229C439.559 553.534 442.16 550.386 443.974 547.3C445.425 544.757 446.635 543.668 449.416 544.515C450.082 544.697 450.747 544.757 451.956 544.939C450.928 547.179 450.142 549.236 449.054 551.113C442.704 561.463 431.335 566.305 418.514 564.066C410.653 562.734 403.154 560.434 398.135 553.595C393.72 547.663 392.994 541.065 394.93 534.044C395.776 530.896 396.925 530.412 400.07 531.26C409.867 533.741 416.398 542.639 415.733 552.505C415.672 553.473 415.43 554.442 415.249 555.834L415.188 555.774Z" fill="#11141D"/>
<path d="M233.283 482.534C229.292 488.405 227.962 494.519 230.441 501.177C232.86 507.653 237.154 512.859 241.689 517.883C245.68 522.241 249.732 526.538 253.723 530.836C250.639 535.194 250.155 535.375 247.011 531.623C240.722 524.178 234.19 516.854 228.566 508.864C221.43 498.877 222.519 485.682 230.26 476.3C233.465 472.426 234.493 472.426 237.698 476.179C246.164 486.105 248.099 501.056 242.294 511.527C241.991 512.072 241.629 512.556 241.326 513.04C238.061 510.68 237.637 509.348 238.726 505.717C240.842 498.514 240.298 491.553 236.126 485.137C235.763 484.532 235.279 483.987 234.795 483.503C234.432 483.14 234.009 482.958 233.344 482.474L233.283 482.534Z" fill="#11141D"/>
<path d="M90.7466 110.709C91.7142 105.261 92.1375 100.056 93.5889 95.153C97.6406 81.292 105.26 69.7916 117.778 62.044C126.245 56.778 135.437 55.0833 145.294 56.4149C152.49 57.3833 158.659 56.0517 162.892 49.3936C164.404 46.9725 166.218 49.091 167.911 49.4541C166.339 55.628 159.324 61.2571 152.974 61.3177C147.229 61.3177 141.484 60.6519 135.799 61.1966C118.927 62.8914 108.163 72.8786 102.116 88.1317C100.301 92.6713 99.6362 97.6347 98.9105 102.537C98.1848 107.38 96.8544 109.196 90.8071 110.769L90.7466 110.709Z" fill="#11141D"/>
<path d="M545.509 440.043C545.932 447.307 544.723 454.086 542.243 460.623C534.987 479.326 522.106 492.34 502.633 497.848C497.916 499.18 492.716 498.937 487.696 498.998C483.765 499.058 481.407 496.758 480.379 493.006C479.956 491.371 479.29 489.737 478.988 488.042C478.746 486.65 478.141 485.016 480.621 484.653C482.737 484.35 483.947 484.653 484.491 487.074C485.64 492.34 486.184 492.703 491.446 493.308C500.759 494.277 508.983 491.25 516.361 485.984C530.814 475.573 539.28 461.652 540.429 443.615C540.611 440.951 540.853 440.709 545.449 440.104L545.509 440.043Z" fill="#11141D"/>
<path d="M359.673 512.919C357.012 511.043 356.529 509.469 358.282 506.564C362.455 499.906 363.544 492.703 359.855 485.319C359.371 484.35 358.706 483.503 357.859 482.171C351.993 488.405 350.602 495.306 351.993 503.053C353.384 510.74 358.827 515.825 364.027 521.333C363.181 522.241 362.516 522.907 361.911 523.633C360.762 525.025 359.734 525.025 358.403 523.814C343.708 510.801 341.229 491.25 352.961 476.845C356.347 472.668 358.343 472.668 361.79 476.784C370.014 486.59 369.531 502.63 360.701 512.072C360.459 512.375 360.097 512.556 359.673 512.859V512.919Z" fill="#11141D"/>
<path d="M119.048 518.064C117.113 514.069 117.234 513.767 120.681 511.951C124.672 509.832 127.575 506.746 128.361 502.085C128.845 499.301 128.361 498.756 125.64 499.24C119.23 500.39 115.48 506.019 115.843 513.827C116.327 524.057 123.161 532.712 133.018 535.618C135.759 536.425 136.949 538.624 136.586 542.215C134.167 541.731 131.687 541.549 129.45 540.762C116.206 536.223 107.8 520.667 111.247 507.532C113.666 498.393 120.863 493.187 130.236 493.671C132.897 493.792 134.288 495.185 134.227 497.606C134.106 506.564 130.357 514.493 120.439 517.762C119.956 517.943 119.472 517.943 119.048 518.064Z" fill="#11141D"/>
<path d="M13.5217 338.961C8.98622 333.574 5.90206 327.642 3.9669 321.105C-1.65716 302.402 0.58037 284.728 11.8285 268.748C16.485 262.151 22.3509 256.401 27.7331 250.227C31.1196 253.919 31.0591 254.585 28.2773 257.672C21.9276 264.814 14.7312 271.291 10.9818 280.37C3.60406 298.105 4.63211 315.355 14.6707 331.819C16.8478 335.39 16.9083 335.329 13.5217 338.901V338.961Z" fill="#11141D"/>
<path d="M48.5967 418.435C52.8298 419.645 53.0717 420.009 52.7089 424.064C52.1646 429.148 51.3785 434.293 51.0761 439.378C49.9271 461.531 64.5013 483.382 85.5461 491.371C89.4164 492.824 89.5374 493.066 88.5093 497.666C74.9632 494.035 64.5617 486.045 56.5792 474.787C44.2426 457.476 44.1216 438.349 48.6572 418.374L48.5967 418.435Z" fill="#11141D"/>
<path d="M394.748 571.874C397.107 569.937 399.647 568.182 401.763 566.003C405.513 562.25 405.452 562.129 410.351 564.913C407.811 572.177 392.39 581.619 386.524 580.227C387.673 561.705 383.137 545.181 368.382 532.712C368.563 532.409 368.624 532.167 368.745 532.046C372.796 527.749 373.28 527.688 377.453 531.865C385.617 539.975 389.729 550.144 391.967 561.16C392.632 564.489 393.116 567.819 393.66 571.148C393.962 571.39 394.325 571.571 394.627 571.813L394.748 571.874Z" fill="#11141D"/>
<path d="M562.744 354.759C559.902 351.248 559.902 351.067 562.744 347.98C566.252 344.106 570.001 340.414 573.267 336.358C587.236 319.229 588.506 292.233 576.411 273.772C574.879 271.391 575.242 269.091 577.5 266.872C585.301 276.011 588.748 286.725 589.655 298.346C591.53 322.195 579.919 339.808 562.744 354.819V354.759Z" fill="#11141D"/>
<path d="M382.835 25.4244C378.057 28.9956 370.196 26.3929 366.386 22.1559C363.725 19.1295 360.822 18.5847 356.952 20.1585C358.887 21.6717 360.701 23.0638 362.515 24.5165C364.209 25.8481 365.902 27.2403 367.958 28.9351C365.116 29.843 362.878 30.6904 360.58 31.1746C359.734 31.3562 358.464 30.7509 357.798 30.0851C349.937 22.5796 340.866 16.8294 331.311 11.8056C327.199 9.68709 322.966 9.08181 318.793 10.8371C315.588 12.1687 313.894 11.3214 312.443 8.17388C314.741 5.99486 317.704 5.26852 320.728 4.72377C327.199 3.57373 332.702 6.17645 338.265 8.96075C344.615 12.1687 350.421 16.5873 357.738 17.6163C360.701 18.04 363.785 18.2821 366.749 17.8584C370.558 17.2531 373.703 18.1005 376.606 20.3401C378.722 21.9743 380.778 23.7297 382.895 25.485L382.835 25.4244Z" fill="#11141D"/>
<path d="M480.621 510.983C476.267 511.648 476.025 511.527 474.816 507.593C473.425 503.114 470.582 500.148 465.866 499.18C463.265 498.635 462.539 499.422 463.084 502.085C464.233 508.138 470.401 513.222 477.174 513.827C484.31 514.493 489.632 511.467 492.776 505.232C494.47 501.903 496.586 500.995 499.852 501.48C498.945 513.464 487.394 521.393 474.695 518.791C463.447 516.43 456.855 508.501 457.036 497.666C457.036 495.427 457.823 494.035 460.121 493.55C469.736 491.371 481.044 500.995 480.621 510.983Z" fill="#11141D"/>
<path d="M280.453 16.7084C273.861 24.0323 261.343 26.635 252.574 20.4006C238.544 10.474 218.649 11.8661 204.558 23.306C201.897 25.485 199.358 26.0903 195.608 24.7586C198.148 22.5796 200.265 20.4611 202.684 18.8269C216.895 9.20286 232.134 6.41856 248.583 12.0477C250.639 12.774 252.514 13.9846 254.449 15.1346C261.222 19.19 267.874 20.8243 275.01 15.7399C276.038 15.0136 278.639 16.4057 280.453 16.7689V16.7084Z" fill="#11141D"/>
<path d="M46.238 270.685C50.7735 278.796 53.2529 287.33 53.9786 296.349C55.1276 310.573 52.5272 323.95 45.4518 336.479C42.4281 341.866 39.8882 347.617 37.1669 353.185C33.1756 351.369 32.8128 350.583 34.4456 347.132C36.6831 342.532 38.9811 337.932 41.4001 333.393C51.1363 314.931 51.6201 296.047 43.819 276.859C42.3072 273.106 42.2467 273.106 46.238 270.685Z" fill="#11141D"/>
<path d="M553.915 252.406C557.967 254.645 558.148 255.129 556.273 258.943C553.794 263.906 551.133 268.748 548.714 273.711C539.885 291.749 539.462 310.089 547.202 328.611C548.775 332.363 548.835 332.363 544.3 334.845C542.425 329.7 540.127 324.737 538.857 319.592C534.805 302.583 536.498 286.241 544.723 270.625C547.565 265.298 550.105 259.79 552.766 254.403C553.129 253.677 553.552 253.011 553.915 252.345V252.406Z" fill="#11141D"/>
<path d="M371.284 568.121C369.772 569.937 368.261 571.813 366.749 573.629C362.878 578.108 361.608 578.351 355.984 575.869C362.213 570.119 368.442 564.368 374.671 558.558C374.489 558.134 374.308 557.71 374.126 557.287C375.034 559.466 376.122 561.524 376.787 563.763C378.602 569.453 378.601 575.264 377.815 581.135C377.452 583.98 375.88 585.069 373.038 585.493C363.967 586.885 355.44 584.767 347.034 581.801C344.676 580.953 342.438 579.924 340.019 578.956C342.922 575.445 344.676 574.961 348.425 576.414C355.017 578.956 361.729 581.074 368.926 580.953C371.647 580.953 372.857 579.743 372.857 577.261C372.857 574.295 372.554 571.329 372.433 568.424C372.07 568.303 371.708 568.242 371.284 568.121Z" fill="#11141D"/>
<path d="M258.803 578.592C259.952 577.927 260.92 577.503 261.706 576.898C263.883 575.263 265.818 575.687 268.056 576.898C270.777 578.411 273.68 579.621 276.522 580.832C279.969 582.285 283.235 581.8 286.016 579.198C290.854 574.658 295.692 570.119 300.53 565.518C302.042 564.066 303.614 562.613 305.308 561.039C306.94 562.25 308.452 563.339 310.629 564.974C301.74 572.903 293.213 580.59 284.565 588.216C283.96 588.761 282.932 589.064 282.086 589.064C278.155 589.064 262.19 581.861 258.803 578.592Z" fill="#11141D"/>
<path d="M55.3088 192.664C53.5551 188.669 53.676 188.064 56.9416 186.006C58.5744 184.977 60.2072 183.948 61.9005 183.101C67.0407 180.619 70.7296 181.89 73.3905 187.035C77.2608 194.601 74.3581 205.254 66.436 210.096C60.0258 213.97 53.0108 216.815 46.2982 220.084C43.1536 216.028 43.2141 215.665 47.3868 213.728C51.5595 211.791 55.8531 209.975 60.0863 208.038C64.1985 206.162 67.3431 203.317 68.8549 198.959C70.0039 195.691 69.3992 192.604 67.7664 189.638C66.7988 187.882 65.4079 187.217 63.5333 188.246C60.8724 189.638 58.2116 191.09 55.3693 192.604L55.3088 192.664Z" fill="#11141D"/>
<path d="M555.245 196.356C554.882 197.446 554.641 198.293 554.338 199.141C554.157 199.685 553.794 200.17 553.189 201.38C545.509 197.446 537.829 193.693 530.391 189.638C525.613 187.035 523.497 187.761 522.408 193.088C521.561 197.385 523.073 201.017 525.674 204.285C526.399 205.193 527.246 206.041 528.274 207.13C527.125 208.22 526.036 209.188 525.008 210.157C517.691 205.617 514.486 194.419 518.235 187.035C520.836 181.89 524.404 180.619 529.665 183.222C532.568 184.674 535.228 186.49 538.071 187.943C543.634 190.727 549.258 193.39 555.185 196.296L555.245 196.356Z" fill="#11141D"/>
<path d="M37.0461 336.722C29.124 330.85 21.202 325.161 17.4526 315.718C13.038 304.46 14.187 293.625 20.8996 283.517C21.3834 282.791 21.9881 282.064 22.5929 281.399C22.8952 281.035 23.3185 280.733 23.6209 280.43C27.0074 282.912 27.1284 283.336 25.0118 286.544C17.0898 298.589 18.6621 313.418 28.9426 323.466C31.3615 325.826 34.0829 327.945 36.7437 330.124C40.0093 332.848 40.0093 332.848 36.9856 336.722H37.0461Z" fill="#11141D"/>
<path d="M503.057 480.718C502.331 477.45 502.512 475.634 505.778 474.484C520.473 469.157 527.548 452.996 522.469 436.956C521.743 434.596 520.775 432.235 519.868 429.693C521.441 428.846 522.892 428.119 524.827 427.09C528.637 437.925 531.963 448.517 527.307 459.654C522.771 470.428 515.151 477.873 503.117 480.718H503.057Z" fill="#11141D"/>
<path d="M62.5057 444.462C66.255 444.159 67.2226 444.825 67.2831 447.851C67.5854 462.862 77.8055 474.242 92.7425 476.058C95.8267 476.421 98.9713 476.602 102.055 476.784C106.107 476.966 106.289 477.147 105.623 481.505C82.8248 486.832 57.2444 464.799 62.5057 444.462Z" fill="#11141D"/>
<path d="M269.325 524.117C270.535 525.63 271.623 526.901 272.591 528.052C264.609 534.346 256.868 540.52 249.006 546.573C248.402 547.057 247.011 547.239 246.345 546.876C239.21 543.123 233.041 537.978 227.175 532.531C230.199 528.112 230.683 528.052 234.432 531.017C237.274 533.257 240.117 535.497 243.08 537.554C246.527 539.915 247.494 539.552 250.821 537.01C256.082 533.015 261.524 529.202 266.907 525.328C267.572 524.843 268.297 524.541 269.325 524.057V524.117Z" fill="#11141D"/>
<path d="M567.28 325.04C565.103 322.941 564.76 320.682 566.252 318.26C574.053 305.792 572.057 291.204 561.172 281.278C558.934 279.22 556.576 277.404 554.278 275.467C552.06 273.611 551.939 271.432 553.915 268.93C564.014 276.133 573.387 283.82 575.625 297.257C577.258 306.942 573.932 318.805 567.28 325.04Z" fill="#11141D"/>
<path d="M53.9182 433.869C62.8078 436.835 72.1812 437.985 79.9219 443.614C89.0534 450.212 94.4356 459.049 96.1288 470.186C96.3103 471.457 96.1288 472.789 96.1288 474.06C92.4399 475.089 91.17 474.363 90.7467 470.913C88.8115 456.567 80.5871 447.67 67.1014 443.251C63.6544 442.162 60.147 441.193 56.7 440.164C52.5273 438.954 52.2854 438.47 53.9182 433.809V433.869Z" fill="#11141D"/>
<path d="M283.476 8.11331C289.645 1.4552 301.195 1.4552 307.787 7.20538C309.843 8.96071 311.657 11.0187 313.471 13.0161C318.491 18.5242 325.808 20.2795 332.762 17.5557C336.451 16.103 336.875 16.2241 339.898 19.3716C330.525 26.9376 316.495 25.3639 308.452 15.3162C303.312 8.90018 297.204 7.20538 289.463 9.20282C287.709 9.62652 285.472 8.47648 283.476 8.05278V8.11331Z" fill="#11141D"/>
<path d="M33.2361 324.495C30.7365 322.76 30.1116 320.702 31.3614 318.321C37.7716 306.034 36.7436 294.291 28.7006 283.154C26.463 280.067 23.9836 277.101 21.6856 274.075C18.9038 270.443 18.9643 270.201 22.8346 266.993C30.6357 277.04 39.7068 286.18 40.5534 300.041C41.0372 308.334 38.3764 318.684 33.2966 324.434L33.2361 324.495Z" fill="#11141D"/>
<path d="M571.633 334.724C570.545 336.056 569.638 337.206 568.428 338.719C567.219 337.206 566.07 335.995 565.163 334.603C561.051 328.429 555.971 322.679 553.068 315.96C548.412 305.005 549.802 293.867 555.789 283.457C556.394 282.428 556.817 280.309 558.813 281.822C560.264 282.912 561.534 283.82 560.204 286.18C552.947 298.891 553.975 311.179 562.562 322.921C565.465 326.916 568.549 330.729 571.633 334.724Z" fill="#11141D"/>
<path d="M495.618 491.069C496.041 481.021 493.743 470.973 497.614 461.349C501 452.815 506.745 446.217 514.667 441.678C516.542 440.588 518.598 439.922 520.594 439.075C522.529 443.493 522.347 443.675 518.9 445.43C507.35 451.302 501 460.683 500.456 473.758C500.274 477.995 500.456 482.232 500.637 486.469C500.879 490.948 500.698 491.19 495.618 491.19V491.069Z" fill="#11141D"/>
<path d="M219.011 30.5694C216.169 32.8694 214.053 34.8669 211.634 36.4406C210.847 36.9248 209.336 36.7432 208.308 36.3195C200.688 33.5352 192.947 31.5983 184.723 32.2036C180.187 32.5668 176.075 34.08 173.535 37.8933C171.479 40.8592 169.544 40.496 167.125 38.9828C168.516 33.2931 176.075 27.0587 183.03 27.1798C192.524 27.3614 202.079 28.4509 211.573 29.2377C213.811 29.4193 216.048 30.0246 219.011 30.5694Z" fill="#11141D"/>
<path d="M399.828 26.9376C410.592 24.8796 421.901 31.4167 425.287 41.2223C426.194 43.7645 427.101 46.3672 428.311 48.7278C431.032 53.9937 435.265 57.0202 441.373 56.778C444.397 56.657 444.457 58.5939 444.639 60.5913C437.624 63.2546 427.827 59.1992 424.319 52.0568C422.505 48.3646 420.993 44.4908 419.361 40.7381C417.123 35.6537 413.071 32.6273 407.75 32.3246C403.758 32.0825 401.944 29.7824 399.828 26.8165V26.9376Z" fill="#11141D"/>
<path d="M315.044 553.655C327.018 542.094 338.871 530.654 350.784 519.094C353.384 521.212 353.445 521.575 350.24 524.965C341.229 534.589 332.339 544.273 323.147 553.716C319.096 557.832 319.882 558.074 314.983 553.655H315.044Z" fill="#11141D"/>
<path d="M549.198 167.061C554.459 169.24 557.967 172.871 560.385 177.472C563.712 183.827 564.498 190.667 562.502 197.385C560.506 204.043 557.483 210.459 554.761 217.299C552.766 216.21 551.496 215.544 549.984 214.696C551.859 210.459 553.733 206.465 555.427 202.409C558.329 195.509 559.418 188.427 555.91 181.406C555.064 179.711 553.915 178.137 552.584 176.806C548.775 173.053 548.714 173.113 549.198 167.061Z" fill="#11141D"/>
<path d="M43.9401 435.746C35.4133 433.627 27.9146 424.185 27.9146 414.742C27.9146 410.748 29.0031 406.632 30.273 402.758C31.9058 397.916 34.2643 393.376 36.3204 388.776C41.1583 389.986 41.2188 390.289 39.586 394.466C37.3484 400.155 34.6271 405.784 33.4781 411.716C32.0872 418.919 35.3528 425.032 41.5816 428.906C44.5448 430.722 45.0286 432.659 43.9401 435.685V435.746Z" fill="#11141D"/>
<path d="M293.757 568.242C292.064 570.058 290.733 571.39 289.161 573.084C278.336 563.037 267.753 553.292 256.929 543.183C258.924 541.549 260.255 540.399 261.646 539.249C272.41 548.934 282.932 558.437 293.818 568.242H293.757Z" fill="#11141D"/>
<path d="M13.8241 262.695C7.89764 255.795 8.13953 243.145 13.8241 235.095C17.2711 230.192 22.5927 227.771 27.3097 224.623C29.8496 222.868 32.6919 221.597 35.3527 220.083C38.4369 224.139 38.4369 224.199 34.5061 226.621C30.5753 229.042 26.5235 231.281 22.7137 233.944C15.1545 239.089 12.4332 247.745 16.0011 255.977C17.4525 259.245 16.4244 260.94 13.8241 262.756V262.695Z" fill="#11141D"/>
<path d="M555.669 385.81C552.705 381.089 552.766 381.149 556.878 378.728C560.688 376.489 564.498 374.249 568.187 371.767C575.746 366.743 578.467 357.906 575.202 349.493C574.274 347.112 574.96 344.852 577.258 342.714C578.044 343.985 578.951 345.135 579.556 346.467C584.333 357.059 580.584 369.951 570.847 376.307C565.889 379.515 560.869 382.541 555.669 385.749V385.81Z" fill="#11141D"/>
<path d="M453.831 56.3544C470.34 55.0228 493.623 74.3313 495.376 90.6134C490.659 90.916 490.236 90.6134 488.664 86.6791C483.04 73.0602 473.061 64.3441 458.548 61.4993C455.282 60.8335 454.073 59.5018 453.891 56.2938L453.831 56.3544Z" fill="#11141D"/>
<path d="M26.9468 404.634C20.1737 400.7 15.2754 390.289 17.1501 382.36C18.2386 377.639 20.5366 373.22 22.6532 368.801C24.286 365.351 26.463 362.204 28.3982 358.935C32.9337 360.751 33.0546 361.175 30.8776 365.109C28.4586 369.407 25.9792 373.644 23.8626 378.123C20.5366 385.084 21.6856 391.863 26.6444 397.492C29.0029 400.155 28.8215 402.031 26.9468 404.634Z" fill="#11141D"/>
<path d="M23.6814 328.732C28.096 331.637 28.096 331.577 25.4956 335.148C22.7138 339.021 19.8111 342.774 17.3317 346.769C13.159 353.488 13.2799 360.57 17.8155 366.925C19.932 369.891 19.3273 371.707 17.1503 374.067C12.6752 370.375 10.4377 365.472 9.59104 360.025C8.68393 353.972 9.65151 348.161 13.3404 343.016C16.7269 338.295 20.1135 333.574 23.6209 328.671L23.6814 328.732Z" fill="#11141D"/>
<path d="M91.412 95.2136C90.9282 98.7243 89.5978 100.782 87.0579 102.356C81.7967 105.685 79.3777 111.072 77.8659 116.822C76.9588 120.212 76.354 123.722 75.8098 127.173C75.0236 132.257 74.4793 132.923 68.4924 134.436C69.2181 129.957 69.6414 125.659 70.609 121.543C72.3023 114.401 74.4189 107.319 79.4382 101.569C82.5828 97.9979 86.4531 95.8189 91.4724 95.2136H91.412Z" fill="#11141D"/>
<path d="M544.481 414.379C542.364 409.537 542.364 409.537 546.235 407.782C550.407 405.845 554.641 403.908 558.753 401.85C565.707 398.4 569.517 391.439 568.791 383.812C568.55 381.19 569.779 379.253 572.48 378.002C574.536 382.541 574.295 387.141 573.025 391.742C571.089 398.702 566.977 403.908 560.325 406.995C555.064 409.476 549.803 411.898 544.36 414.44L544.481 414.379Z" fill="#11141D"/>
<path d="M564.014 200.957C571.936 206.101 576.351 217.118 573.085 226.378C570.606 233.46 566.372 239.997 562.925 246.716C558.087 244.537 558.027 244.295 560.144 240.603C562.381 236.547 564.74 232.552 566.796 228.436C570.545 221.052 569.517 214.031 564.256 207.917C562.079 205.375 562.079 203.499 564.014 200.957Z" fill="#11141D"/>
<path d="M309.722 525.933C311.294 526.841 312.927 527.87 315.104 529.141C309.541 535.073 304.34 540.823 298.958 546.331C295.813 549.539 292.185 552.384 289.101 555.592C286.863 557.952 285.17 557.71 283.295 555.41C282.872 554.865 282.388 554.381 281.783 553.715C286.682 549.297 291.701 545.12 296.357 540.581C300.953 535.981 305.187 531.017 309.783 525.933H309.722Z" fill="#11141D"/>
<path d="M573.025 231.221C580.705 237.031 584.091 249.016 579.979 257.429C576.653 264.33 571.815 270.443 567.401 277.222C565.586 275.709 564.498 274.74 563.167 273.651C566.07 269.656 568.671 265.722 571.573 262.029C577.5 254.585 578.528 245.203 572.359 236.91C571.634 235.942 572.662 233.581 572.964 231.221H573.025Z" fill="#11141D"/>
<path d="M531.237 441.496C529.423 436.533 529.544 436.351 533.596 435.02C538.192 433.506 542.788 431.933 547.263 430.238C553.915 427.635 558.148 421.159 558.148 413.895C558.148 411.313 559.761 409.436 562.986 408.266C562.986 411.353 563.349 414.198 562.925 416.982C561.776 424.79 557.483 430.783 550.528 434.172C544.421 437.138 537.829 439.075 531.237 441.496Z" fill="#11141D"/>
<path d="M297.506 551.052C299.018 549.418 300.228 548.147 301.135 547.118C311.657 554.502 321.817 561.705 331.976 568.848C329.134 572.177 327.864 572.54 324.357 570.784C314.439 565.761 305.791 558.921 297.506 551.052Z" fill="#11141D"/>
<path d="M46.843 338.174C54.8255 342.532 58.8168 353.972 55.6117 362.749C55.1884 363.959 54.5836 365.17 53.9184 366.32C50.9552 371.646 47.9315 376.973 44.7869 382.602C43.3355 381.876 42.0656 381.21 40.3723 380.302C41.8237 377.578 43.1541 375.036 44.6055 372.494C46.4802 369.165 48.6572 365.957 50.2295 362.506C53.2532 355.909 51.7414 349.735 47.0244 344.59C44.7264 342.108 44.7264 340.474 46.9035 338.174H46.843Z" fill="#11141D"/>
<path d="M18.2993 227.77C15.7594 220.991 16.727 214.696 19.8716 208.704C22.1696 204.285 25.5561 200.956 30.0916 198.777C34.5062 196.659 38.9208 194.601 43.3354 192.482C45.6334 197.506 45.6334 197.506 41.2793 199.504C38.437 200.775 35.5948 202.106 32.813 203.499C25.0118 207.312 21.2625 214.454 22.351 222.989C22.7138 225.531 22.5929 225.713 18.2993 227.77Z" fill="#11141D"/>
<path d="M546.174 263.543C545.569 264.753 544.904 266.085 544.299 267.356C536.135 263.301 532.084 251.982 535.591 242.842C537.103 238.908 539.401 235.276 541.336 231.584C542.425 229.526 543.695 227.589 544.723 225.531C545.569 223.897 546.174 222.928 548.291 224.078C550.347 225.228 550.105 226.318 549.137 227.952C547.081 231.402 545.086 234.913 543.09 238.423C537.164 248.895 537.829 254.706 546.114 263.603L546.174 263.543Z" fill="#11141D"/>
<path d="M544.905 385.628C547.686 389.623 547.626 389.926 543.695 391.742C539.402 393.739 535.108 395.736 530.754 397.552C523.678 400.579 521.078 406.208 521.078 413.471C521.078 417.648 521.199 417.648 516.482 418.011C515.091 414.198 515.333 410.324 516.482 406.571C518.478 400.337 522.469 395.797 528.577 393.134C534.019 390.773 539.341 388.231 544.905 385.628Z" fill="#11141D"/>
<path d="M108.949 519.033C103.083 518.548 99.3339 516.127 96.2498 512.496C92.198 507.593 91.1095 501.661 90.7467 495.608C90.5048 492.219 90.7467 488.769 90.7467 485.379C90.7467 483.987 90.9886 482.897 92.7423 483.26C94.1937 483.563 96.2498 482.837 96.2498 485.439C96.2498 488.345 96.2498 491.25 96.2498 494.216C96.2498 502.569 99.1525 509.227 107.075 513.222C108.284 513.827 108.284 516.672 109.01 519.093L108.949 519.033Z" fill="#11141D"/>
<path d="M55.3092 410.203C50.5923 408.629 50.5318 408.629 52.1646 404.513C53.5555 401.063 54.8859 397.552 56.5792 394.284C60.7518 385.991 59.9657 378.607 53.1321 371.767C53.8578 370.496 54.5835 369.286 55.4906 367.712C60.5099 371.283 63.7151 375.944 64.0779 381.754C64.3198 385.447 63.6546 389.381 62.4451 392.892C60.4495 398.763 57.7886 404.392 55.3092 410.263V410.203Z" fill="#11141D"/>
<path d="M64.5012 394.042C71.4557 398.279 74.177 404.271 74.2979 411.534C74.4793 419.222 73.1489 426.727 70.1857 433.93C69.1577 436.351 67.7668 436.109 65.8921 435.504C63.5941 434.777 64.864 433.325 65.1664 432.114C66.4968 426.424 68.1901 420.856 69.1577 415.106C70.1857 409.113 68.5529 403.666 63.7755 399.55C61.2356 397.371 64.0174 396.16 64.5617 394.042H64.5012Z" fill="#11141D"/>
<path d="M252.393 11.0188C257.533 5.14752 266.241 2.5448 273.196 5.38963C279.788 8.05288 286.077 11.503 292.487 14.6505C292.729 14.7715 292.85 15.0742 293.152 15.4979C291.157 16.5874 289.282 17.8585 287.286 18.6453C286.561 18.948 285.23 18.4032 284.565 17.8585C280.211 14.1662 275.433 11.3214 269.688 10.2319C265.879 9.50556 262.008 9.86873 258.985 12.2293C256.021 14.5294 254.389 13.1978 252.333 11.0793L252.393 11.0188Z" fill="#11141D"/>
<path d="M54.6441 241.087C58.8168 248.774 56.5793 259.669 49.6248 265.54C44.6055 269.717 39.3443 273.53 33.9017 277.767C32.8736 276.556 31.8456 275.406 30.5151 273.893C34.8088 270.564 38.8 267.175 43.0937 264.269C50.1086 259.548 52.8299 253.253 51.0762 245.082C50.411 241.874 53.0114 242.237 54.6441 241.087Z" fill="#11141D"/>
<path d="M297.144 514.675C298.474 513.041 299.442 511.891 300.409 510.74C311.536 517.459 322.422 524.117 333.972 531.138C331.855 532.894 330.283 534.165 328.771 535.436C318.491 528.717 307.968 521.757 297.144 514.675Z" fill="#11141D"/>
<path d="M552.887 356.999C555.729 361.054 555.729 361.114 551.979 363.415C548.23 365.715 544.42 367.954 540.55 370.133C534.321 373.704 531.418 379.152 531.842 386.113C532.023 389.321 530.814 390.531 527.73 390.834C525.855 386.355 526.278 381.815 527.971 377.457C529.907 372.312 533.414 368.438 538.312 365.715C543.211 362.991 547.928 359.964 552.887 356.999Z" fill="#11141D"/>
<path d="M557.241 327.945C558.33 329.216 559.176 330.305 560.386 331.758C555.971 335.148 551.798 338.598 547.384 341.624C540.611 346.285 538.192 352.58 539.885 360.448C540.55 363.656 537.889 363.293 536.438 364.322C532.447 358.088 534.08 347.374 539.885 341.685C541.518 340.05 543.272 338.537 545.086 337.085C548.956 334.058 552.947 331.153 557.241 327.884V327.945Z" fill="#11141D"/>
<path d="M49.6849 174.808C50.592 180.559 50.8943 186.006 52.3457 191.151C53.7971 196.296 56.2765 201.199 58.3326 206.344C55.067 208.946 54.6437 208.825 51.9829 205.194C46.1774 197.264 44.3632 188.064 43.3956 178.561C43.2142 176.987 43.698 176.079 45.3307 175.777C46.8426 175.474 48.3544 175.111 49.6849 174.808Z" fill="#11141D"/>
<path d="M276.401 565.035C267.572 571.148 258.682 576.656 248.644 579.924C246.89 580.469 244.41 578.835 242.233 578.23C242.233 577.867 242.354 577.564 242.354 577.201C242.838 576.898 243.261 576.535 243.745 576.232C251.788 571.814 259.892 567.577 267.814 563.037C272.531 560.313 272.47 560.132 276.341 565.035H276.401Z" fill="#11141D"/>
<path d="M488.603 92.9135C502.27 91.5818 516.3 101.993 518.175 114.946C514.909 114.462 512.067 113.977 510.616 110.225C507.955 103.203 502.028 100.601 495.074 99.3295C489.571 98.3005 489.45 98.0584 488.543 92.9135H488.603Z" fill="#11141D"/>
<path d="M108.647 100.54C106.409 107.077 104.595 113.675 97.7011 116.459C91.8956 118.759 85.7273 120.333 79.6194 122.209C79.1357 117.246 80.0428 116.096 83.9736 115.188C87.3601 114.341 90.8071 113.493 94.0727 112.222C98.0639 110.648 101.148 107.803 102.479 103.627C103.507 100.358 105.623 100.237 108.707 100.54H108.647Z" fill="#11141D"/>
<path d="M546.9 236.426C554.399 243.326 561.535 249.621 568.368 256.219C571.573 259.306 571.332 259.548 568.55 262.514C560.386 255.614 552.222 248.774 543.635 241.571C544.3 240.542 545.328 238.908 546.9 236.426Z" fill="#11141D"/>
<path d="M427.404 40.8591C438.954 37.8327 451.109 47.7594 452.803 63.9204C448.872 64.6467 448.267 64.0415 446.937 60.5308C445.667 57.2018 444.216 53.8122 442.28 50.8463C440.103 47.5172 436.596 45.6409 432.544 45.7014C429.097 45.7014 428.129 43.704 427.404 40.8591Z" fill="#11141D"/>
<path d="M35.9578 409.537C36.5625 408.024 37.1068 406.632 37.8325 404.755C41.9447 406.632 45.815 408.326 49.6853 410.142C54.0394 412.261 58.2121 414.561 62.5662 416.679C66.9808 418.798 67.0413 418.737 64.9247 423.7C55.3698 418.979 45.7545 414.319 35.9578 409.476V409.537Z" fill="#11141D"/>
<path d="M38.0739 265.238C35.9574 261.182 33.9617 257.066 31.7847 253.011C29.4262 248.592 27.0073 244.174 24.5278 239.816C22.2903 235.821 22.2903 235.7 27.1282 233.642C30.4543 239.634 33.8408 245.626 37.1064 251.679C38.3763 254.04 39.4648 256.582 40.6138 259.064C42.3676 262.938 42.3676 262.938 38.1344 265.238H38.0739Z" fill="#11141D"/>
<path d="M53.5554 395.131C44.6053 390.349 35.5342 385.628 26.6446 380.544C23.5 378.728 27.0074 377.154 27.4912 374.975C31.8453 377.517 35.8971 379.939 40.0093 382.178C44.182 384.418 48.4151 386.536 52.6483 388.655C56.5186 390.531 56.5791 390.773 53.5554 395.192V395.131Z" fill="#11141D"/>
<path d="M22.4718 343.016C30.7567 350.038 38.9207 356.817 47.2661 363.899C46.1775 367.53 45.7542 367.712 41.8839 365.412C34.5666 361.054 27.9749 355.848 22.3509 349.432C19.4481 346.103 19.4481 345.922 22.4718 343.077V343.016Z" fill="#11141D"/>
<path d="M568.187 369.407C566.856 370.254 565.707 371.041 564.135 372.07C561.293 367.107 558.39 362.386 555.79 357.543C553.854 353.912 552.161 350.098 550.468 346.346C548.775 342.593 548.775 342.593 552.705 340.353C557.785 349.917 562.865 359.42 568.126 369.346L568.187 369.407Z" fill="#11141D"/>
<path d="M539.341 430.782C538.192 419.887 536.196 409.476 531.237 399.429C532.809 398.763 534.2 398.158 535.773 397.492C540.49 407.237 543.392 417.103 543.816 427.574C543.937 430.661 541.336 429.996 539.28 430.722L539.341 430.782Z" fill="#11141D"/>
<path d="M554.762 401.245C550.165 391.742 545.63 382.239 540.853 372.373C541.881 371.767 543.09 370.98 544.723 369.951C546.477 373.159 548.291 376.004 549.742 379.031C552.464 384.539 555.064 390.107 557.604 395.736C559.478 399.913 559.357 400.094 554.701 401.245H554.762Z" fill="#11141D"/>
<path d="M45.6334 235.155C42.1864 228.376 38.9813 222.02 35.8367 215.665C34.5668 213.123 33.5992 210.459 32.3897 207.978C31.3616 205.92 32.8735 205.617 34.1434 204.951C35.4134 204.286 36.4414 203.862 37.2881 205.617C41.1584 213.91 45.1497 222.141 49.02 230.434C50.4713 233.521 47.1453 233.218 45.6939 235.155H45.6334Z" fill="#11141D"/>
<path d="M535.289 214.999C537.587 211.246 537.708 211.065 541.397 212.941C548.835 216.754 556.153 220.749 563.53 224.563C565.526 225.591 565.647 226.681 564.619 228.618C563.349 230.918 562.2 229.889 560.748 229.102C552.343 224.441 543.876 219.781 535.289 214.999Z" fill="#11141D"/>
<path d="M107.135 90.0082C112.336 78.5078 120.923 71.1839 133.32 67.7338C132.776 71.6076 131.687 74.2708 127.938 75.663C122.012 77.842 117.234 81.6553 113.969 87.1633C112.336 89.8871 109.675 89.7055 107.135 90.0687V90.0082Z" fill="#11141D"/>
<path d="M231.106 517.52C231.832 518.367 232.316 519.093 232.981 519.699C234.674 521.393 234.311 522.664 232.558 524.117C227.841 528.173 223.245 532.349 218.286 536.768C216.835 535.194 215.444 533.62 213.69 531.683C219.556 526.901 225.24 522.301 231.106 517.52Z" fill="#11141D"/>
</g>
<defs>
<filter id="filter0_d_205_443" x="0" y="0" width="590.853" height="603" filterUnits="userSpaceOnUse" color-interpolation-filters="sRGB">
<feFlood flood-opacity="0" result="BackgroundImageFix"/>
<feColorMatrix in="SourceAlpha" type="matrix" values="0 0 0 0 0 0 0 0 0 0 0 0 0 0 0 0 0 0 127 0" result="hardAlpha"/>
<feOffset dy="-2"/>
<feGaussianBlur stdDeviation="0.5"/>
<feComposite in2="hardAlpha" operator="out"/>
<feColorMatrix type="matrix" values="0 0 0 0 0 0 0 0 0 0 0 0 0 0 0 0 0 0 1 0"/>
<feBlend mode="normal" in2="BackgroundImageFix" result="effect1_dropShadow_205_443"/>
<feBlend mode="normal" in="SourceGraphic" in2="effect1_dropShadow_205_443" result="shape"/>
</filter>
</defs>
</svg>
