<svg width="49" height="40" viewBox="0 0 49 40" fill="none" xmlns="http://www.w3.org/2000/svg">
<path d="M43.2984 9.70584C43.3179 10.1349 43.3179 10.5445 43.3179 10.9736C43.3179 23.983 33.4097 39.0012 15.2903 39.0012C9.93852 38.998 4.69973 37.4616 0.19397 34.5738C0.97055 34.6678 1.75223 34.7134 2.53448 34.7103C6.96936 34.7255 11.2791 33.2408 14.7637 30.4974C12.709 30.4597 10.7178 29.779 9.06996 28.551C7.42217 27.3231 6.20065 25.6096 5.57715 23.6514C7.05257 23.9444 8.57638 23.8842 10.0241 23.4758C7.79374 23.029 5.78734 21.8225 4.34691 20.062C2.90649 18.3015 2.1212 16.0959 2.12489 13.8212V13.7042C3.49164 14.4709 5.02477 14.8927 6.59137 14.933C4.50309 13.5436 3.02354 11.4099 2.45451 8.96703C1.88548 6.52418 2.26984 3.95628 3.5292 1.78711C6.00392 4.8295 9.09 7.31827 12.5876 9.09228C16.0852 10.8663 19.9164 11.886 23.8331 12.0854C23.3465 9.97373 23.5684 7.76064 24.4646 5.78767C25.3608 3.81469 26.8814 2.19151 28.7918 1.16865C30.7022 0.145796 32.8961 -0.219879 35.0349 0.128069C37.1738 0.476017 39.1387 1.51824 40.6263 3.09389C42.8261 2.6585 44.9364 1.85397 46.8677 0.714372C46.1421 2.99873 44.6007 4.93589 42.5377 6.15606C44.491 5.92414 46.398 5.39808 48.194 4.59572C46.879 6.57666 45.2211 8.30714 43.2984 9.70584Z" fill="#979797"/>
</svg>
