<svg width="544" height="23" viewBox="0 0 544 23" fill="none" xmlns="http://www.w3.org/2000/svg">
<path fill-rule="evenodd" clip-rule="evenodd" d="M0 10.9832L252.878 9.2974L261.114 1.06066L262.175 0L263.236 1.06066L272.175 10L281.114 1.06071L282.175 5.34058e-05L283.236 1.06071L291.475 9.29975L544 10.9832L292.235 12.5326L283.236 21.5322L282.175 22.5928L281.114 21.5322L272.175 12.5928L263.236 21.5321L262.175 22.5928L261.114 21.5321L252.117 12.5347L0 10.9832ZM262.175 18.3501L255.121 11.2964L262.175 4.24264L269.229 11.2964L262.175 18.3501ZM282.175 18.3502L275.121 11.2964L282.175 4.24269L289.229 11.2964L282.175 18.3502Z" fill="url(#paint0_radial_217_686)"/>
<defs>
<radialGradient id="paint0_radial_217_686" cx="0" cy="0" r="1" gradientUnits="userSpaceOnUse" gradientTransform="translate(272 -0.0101148) rotate(90) scale(22.5862 24)">
<stop stop-color="#FFF4D1"/>
<stop offset="0.179031" stop-color="#F5D28F"/>
<stop offset="1" stop-color="#675537"/>
</radialGradient>
</defs>
</svg>
